<svg width="32" height="32" viewBox="0 0 32 32" fill="none" xmlns="http://www.w3.org/2000/svg">
<path d="M17.6446 15.9999L17.291 16.3534L12.0223 21.6222C12.0222 21.6222 12.0222 21.6222 12.0222 21.6222C11.816 21.8285 11.7002 22.1082 11.7002 22.3999C11.7002 22.6916 11.816 22.9713 12.0223 23.1776C12.2285 23.3837 12.5082 23.4995 12.7999 23.4995C13.0915 23.4995 13.3712 23.3837 13.5775 23.1775L17.6446 15.9999ZM17.6446 15.9999L17.291 15.6463L12.0256 10.3809C11.8269 10.1737 11.7171 9.89708 11.7196 9.60997C11.7221 9.32156 11.8377 9.04566 12.0417 8.84171C12.2456 8.63777 12.5215 8.52208 12.81 8.51957C13.0971 8.51708 13.3737 8.62693 13.5809 8.82559L19.9774 15.2222C19.9775 15.2222 19.9775 15.2222 19.9775 15.2222C20.1837 15.4285 20.2995 15.7082 20.2995 15.9999C20.2995 16.2915 20.1837 16.5712 19.9775 16.7775C19.9775 16.7775 19.9775 16.7776 19.9774 16.7776L13.5776 23.1775L17.6446 15.9999Z" fill="#111928" stroke="#111928"/>
</svg>
