<svg width="63" height="63" viewBox="0 0 63 63" fill="none" xmlns="http://www.w3.org/2000/svg">
<path d="M23.625 39.1571V40.6875C23.625 43.8204 24.8695 46.8249 27.0848 49.0402C29.3001 51.2555 32.3046 52.5 35.4375 52.5C38.5704 52.5 41.5749 51.2555 43.7902 49.0402C46.0055 46.8249 47.25 43.8204 47.25 40.6875V36.3037C45.4978 35.6845 44.021 34.4657 43.0806 32.8629C42.1401 31.26 41.7966 29.3763 42.1107 27.5447C42.4249 25.713 43.3765 24.0514 44.7973 22.8536C46.2181 21.6557 48.0166 20.9987 49.875 20.9987C51.7334 20.9987 53.5319 21.6557 54.9527 22.8536C56.3735 24.0514 57.3251 25.713 57.6393 27.5447C57.9534 29.3763 57.6099 31.26 56.6694 32.8629C55.729 34.4657 54.2522 35.6845 52.5 36.3037V40.6875C52.5 45.2128 50.7023 49.5527 47.5025 52.7525C44.3027 55.9523 39.9628 57.75 35.4375 57.75C30.9122 57.75 26.5723 55.9523 23.3725 52.7525C20.1727 49.5527 18.375 45.2128 18.375 40.6875V39.1571C14.7051 38.5357 11.3736 36.6351 8.9712 33.792C6.56876 30.949 5.25048 27.3472 5.25 23.625L5.25 10.5C5.25 9.10761 5.80312 7.77226 6.78769 6.78769C7.77226 5.80312 9.10761 5.25 10.5 5.25H13.125C13.8212 5.25 14.4889 5.52656 14.9812 6.01884C15.4734 6.51113 15.75 7.17881 15.75 7.875C15.75 8.57119 15.4734 9.23887 14.9812 9.73116C14.4889 10.2234 13.8212 10.5 13.125 10.5H10.5V23.625C10.5 26.4098 11.6062 29.0805 13.5754 31.0496C15.5445 33.0188 18.2152 34.125 21 34.125C23.7848 34.125 26.4555 33.0188 28.4246 31.0496C30.3938 29.0805 31.5 26.4098 31.5 23.625V10.5H28.875C28.1788 10.5 27.5111 10.2234 27.0188 9.73116C26.5266 9.23887 26.25 8.57119 26.25 7.875C26.25 7.17881 26.5266 6.51113 27.0188 6.01884C27.5111 5.52656 28.1788 5.25 28.875 5.25H31.5C32.8924 5.25 34.2277 5.80312 35.2123 6.78769C36.1969 7.77226 36.75 9.10761 36.75 10.5V23.625C36.7495 27.3472 35.4312 30.949 33.0288 33.792C30.6264 36.6351 27.2949 38.5357 23.625 39.1571ZM49.875 31.5C50.5712 31.5 51.2389 31.2234 51.7312 30.7312C52.2234 30.2389 52.5 29.5712 52.5 28.875C52.5 28.1788 52.2234 27.5111 51.7312 27.0188C51.2389 26.5266 50.5712 26.25 49.875 26.25C49.1788 26.25 48.5111 26.5266 48.0188 27.0188C47.5266 27.5111 47.25 28.1788 47.25 28.875C47.25 29.5712 47.5266 30.2389 48.0188 30.7312C48.5111 31.2234 49.1788 31.5 49.875 31.5Z" fill="#E8D633"/>
</svg>
