<svg width="63" height="63" viewBox="0 0 63 63" fill="none" xmlns="http://www.w3.org/2000/svg">
<path fill-rule="evenodd" clip-rule="evenodd" d="M11.8125 7.875C10.7682 7.875 9.76669 8.28984 9.02827 9.02827C8.28984 9.76669 7.875 10.7682 7.875 11.8125V51.1875C7.875 52.2318 8.28984 53.2333 9.02827 53.9717C9.76669 54.7102 10.7682 55.125 11.8125 55.125H51.1875C52.2318 55.125 53.2333 54.7102 53.9717 53.9717C54.7102 53.2333 55.125 52.2318 55.125 51.1875V11.8125C55.125 10.7682 54.7102 9.76669 53.9717 9.02827C53.2333 8.28984 52.2318 7.875 51.1875 7.875H11.8125ZM20.3634 42.3714C26.5138 48.5218 36.4862 48.5218 42.6366 42.3714C48.7882 36.2198 48.7882 26.2474 42.6366 20.097C36.9088 14.3693 27.867 13.9755 21.6825 18.9157C25.4048 18.5312 27.9116 23.2076 25.0215 26.0978C23.6092 27.51 24.6094 29.925 26.6057 29.925H27.4431C28.4471 29.9249 29.4231 30.2564 30.2194 30.868C31.0157 31.4797 31.5877 32.3372 31.8465 33.3073L33.5173 39.5732C34.3903 39.2 35.1987 38.691 35.9126 38.0651L35.8601 38.0691C35.3965 38.1046 34.9353 37.975 34.5581 37.703C34.181 37.4311 33.9122 37.0344 33.7995 36.5833L32.5001 31.3858C32.4318 31.1331 32.4145 30.8694 32.4493 30.61C32.4841 30.3505 32.5703 30.1007 32.7028 29.8749C32.8354 29.6492 33.0116 29.4522 33.2211 29.2954C33.4307 29.1386 33.6695 29.0252 33.9234 28.9617C34.1773 28.8983 34.4414 28.8861 34.7001 28.9259C34.9588 28.9657 35.2069 29.0567 35.4301 29.1936C35.6532 29.3305 35.8467 29.5105 35.9995 29.723C36.1522 29.9356 36.261 30.1765 36.3195 30.4316L37.2159 34.0148L39.7819 33.8179C40.112 33.7923 40.4432 33.8504 40.7449 33.9868C41.0465 34.1232 41.309 34.3334 41.5078 34.5981C41.7067 34.8628 41.8356 35.1734 41.8827 35.5011C41.9297 35.8288 41.8933 36.1631 41.7769 36.4731C40.9526 38.6689 37.8551 43.4792 31.0537 44.2352C30.5804 44.2875 30.1041 44.1665 29.7131 43.8945C29.3222 43.6225 29.043 43.218 28.9275 42.756L28.1059 39.4682L24.8181 40.2898C24.5659 40.3568 24.3028 40.373 24.0443 40.3375C23.7858 40.302 23.5369 40.2154 23.3122 40.0828C23.0874 39.9502 22.8912 39.7743 22.7351 39.5652C22.5789 39.3561 22.4659 39.1181 22.4026 38.8649C22.3392 38.6117 22.3269 38.3485 22.3662 38.0905C22.4055 37.8326 22.4957 37.585 22.6315 37.3622C22.7674 37.1394 22.9462 36.9458 23.1575 36.7927C23.3688 36.6396 23.6085 36.5301 23.8626 36.4704L29.0601 35.1711C29.4852 35.0645 29.9337 35.1029 30.3345 35.28L29.9434 33.8139C29.7963 33.2634 29.4717 32.7768 29.0198 32.4296C28.568 32.0825 28.0142 31.8941 27.4444 31.8937H26.6083C22.8572 31.8937 20.9777 27.3577 23.6302 24.7065C25.2932 23.0422 23.5988 20.2676 21.3596 20.9869L18.9053 21.7757C14.259 27.9471 14.7446 36.7526 20.3634 42.3714ZM18.5063 44.2273C25.683 51.4027 37.317 51.4027 44.4938 44.2273C51.6692 37.0506 51.6692 25.4166 44.4938 18.2398C37.317 11.0644 25.683 11.0644 18.5063 18.2398C11.3308 25.4166 11.3308 37.0506 18.5063 44.2273ZM43.8309 31.8832C43.1417 32.5725 42.2069 32.9597 41.2322 32.9597C40.2575 32.9597 39.3227 32.5725 38.6334 31.8832C37.9442 31.194 37.557 30.2592 37.557 29.2845C37.557 28.3098 37.9442 27.375 38.6334 26.6858C38.9747 26.3445 39.3799 26.0738 39.8258 25.8891C40.2716 25.7044 40.7496 25.6093 41.2322 25.6093C41.7148 25.6093 42.1927 25.7044 42.6386 25.8891C43.0845 26.0738 43.4897 26.3445 43.8309 26.6858C44.1722 27.027 44.4429 27.4322 44.6276 27.8781C44.8123 28.324 44.9074 28.8019 44.9074 29.2845C44.9074 29.7671 44.8123 30.245 44.6276 30.6909C44.4429 31.1368 44.1722 31.542 43.8309 31.8832Z" fill="#E8D633"/>
</svg>
