<svg width="48" height="48" viewBox="0 0 48 48" fill="none" xmlns="http://www.w3.org/2000/svg">
<g clip-path="url(#clip0_394_6169)">
<path d="M25.9566 31.2592C25.6772 31.2356 25.3999 31.3236 25.1852 31.5038C24.9705 31.6841 24.8359 31.9419 24.8108 32.2211C24.7877 32.5013 24.8767 32.7792 25.0583 32.9937C25.2399 33.2083 25.4993 33.342 25.7794 33.3655C25.9175 33.3769 26.0564 33.361 26.1884 33.3187C26.3203 33.2764 26.4426 33.2084 26.5482 33.1188C26.6539 33.0292 26.7409 32.9196 26.8041 32.7964C26.8674 32.6731 26.9058 32.5386 26.9171 32.4005C26.929 32.2625 26.9137 32.1235 26.8718 31.9914C26.83 31.8593 26.7626 31.7368 26.6734 31.6308C26.5842 31.5248 26.475 31.4374 26.352 31.3736C26.229 31.3099 26.0946 31.271 25.9566 31.2592ZM24.274 28.9181C24.0936 28.9282 23.9238 29.007 23.7997 29.1383C23.6755 29.2696 23.6063 29.4435 23.6063 29.6242C23.6063 29.805 23.6755 29.9788 23.7997 30.1102C23.9238 30.2415 24.0936 30.3203 24.274 30.3304C24.3687 30.3335 24.463 30.3175 24.5513 30.2834C24.6397 30.2492 24.7203 30.1977 24.7883 30.1318C24.8564 30.066 24.9105 29.9871 24.9474 29.8999C24.9844 29.8127 25.0034 29.7189 25.0034 29.6242C25.0034 29.5295 24.9844 29.4358 24.9474 29.3486C24.9105 29.2614 24.8564 29.1825 24.7883 29.1166C24.7203 29.0508 24.6397 28.9992 24.5513 28.9651C24.463 28.931 24.3687 28.915 24.274 28.9181ZM24.6948 27.3315C24.882 27.3313 25.0615 27.2569 25.194 27.1246C25.3264 26.9923 25.401 26.8129 25.4014 26.6257C25.4014 26.4384 25.327 26.2588 25.1945 26.1264C25.0621 25.9939 24.8825 25.9195 24.6952 25.9195C24.5079 25.9195 24.3283 25.9939 24.1959 26.1264C24.0634 26.2588 23.989 26.4384 23.989 26.6257C23.989 27.0163 24.305 27.3315 24.6948 27.3315ZM17.4457 19.2148C17.2422 19.2146 17.0407 19.2544 16.8526 19.3321C16.6646 19.4097 16.4936 19.5236 16.3496 19.6673C16.2056 19.811 16.0913 19.9817 16.0132 20.1695C15.9351 20.3574 15.8948 20.5588 15.8945 20.7623C15.8943 20.9657 15.9341 21.1672 16.0118 21.3553C16.0894 21.5434 16.2033 21.7143 16.347 21.8583C16.4907 22.0024 16.6614 22.1167 16.8492 22.1948C17.0371 22.2729 17.2385 22.3132 17.442 22.3134C17.8529 22.3139 18.2471 22.1511 18.538 21.8609C18.8289 21.5707 18.9926 21.1769 18.9931 20.766C18.9936 20.3551 18.8308 19.9608 18.5406 19.6699C18.2504 19.379 17.8566 19.2153 17.4457 19.2148ZM26.796 27.0281C26.5873 27.0273 26.3831 27.0886 26.2093 27.204C26.0354 27.3194 25.8997 27.4838 25.8194 27.6763C25.739 27.8689 25.7176 28.081 25.7578 28.2857C25.7981 28.4905 25.8982 28.6787 26.0455 28.8265C26.1928 28.9743 26.3807 29.0751 26.5853 29.1161C26.7899 29.157 27.002 29.1364 27.1949 29.0567C27.3878 28.977 27.5526 28.8419 27.6686 28.6684C27.7846 28.495 27.8466 28.291 27.8466 28.0823C27.8466 27.4991 27.3748 27.0281 26.796 27.0281Z" fill="#E8D633"/>
<path d="M28.2954 29.9416C27.9041 29.9416 27.5867 30.2591 27.5867 30.6445C27.5867 30.8318 27.6611 31.0116 27.7936 31.1441C27.9261 31.2766 28.1058 31.351 28.2932 31.351C28.4806 31.351 28.6603 31.2766 28.7928 31.1441C28.9253 31.0116 28.9997 30.8318 28.9997 30.6445C28.9992 30.458 28.9247 30.2793 28.7927 30.1476C28.6607 30.0159 28.4819 29.9418 28.2954 29.9416ZM29.8724 19.0254H29.6258V20.2834L29.8709 20.2849C30.6269 20.2876 31.3513 20.5888 31.8864 21.1229C32.4215 21.657 32.724 22.3809 32.7281 23.1369C32.7238 23.8931 32.421 24.617 31.8857 25.1512C31.3503 25.6853 30.6257 25.9863 29.8694 25.9889L29.6251 25.9918V27.2513H29.8716C32.1419 27.2513 33.9883 25.4056 33.9883 23.1369C33.9883 20.8681 32.1426 19.0254 29.8716 19.0254H29.8724Z" fill="#E8D633"/>
<path d="M41.0566 2H6.19491C2.77857 2 0 4.61911 0 7.83781V40.6871C0 43.9079 2.77932 46.5263 6.19491 46.5263H41.0566C44.4722 46.5263 47.25 43.9079 47.25 40.6871V7.83781C47.25 4.61841 44.4722 2 41.0566 2ZM16.6872 41.7247H4.05334C4.05334 41.7247 5.15444 30.2918 5.26223 30.1726C5.37226 30.0576 7.5797 30.3016 7.5797 31.948C7.5797 33.1331 7.58644 34.4458 7.59093 35.1759L15.6033 27.6395C15.8059 27.4486 16.0807 27.3413 16.3672 27.3413C16.6537 27.3413 16.9285 27.4486 17.1311 27.6395C17.3336 27.8304 17.4475 28.0894 17.4475 28.3594C17.4475 28.6294 17.3336 28.8883 17.1311 29.0792L10.9025 34.9438L11.535 35.5406L19.4725 28.0684C19.5729 27.9739 19.6921 27.8991 19.8232 27.848C19.9543 27.797 20.0948 27.7708 20.2367 27.7709C20.3785 27.771 20.519 27.7975 20.65 27.8488C20.781 27.9001 20.9 27.9752 21.0002 28.0698C21.1005 28.1644 21.1799 28.2767 21.2341 28.4003C21.2882 28.5238 21.3161 28.6562 21.3159 28.7899C21.3158 28.9236 21.2877 29.056 21.2333 29.1794C21.1789 29.3029 21.0992 29.4151 20.9988 29.5095L13.0635 36.9817L13.696 37.577L20.5182 31.1545C20.7209 30.9635 20.9958 30.8563 21.2823 30.8564C21.5689 30.8565 21.8437 30.9638 22.0463 31.1548C22.2489 31.3458 22.3627 31.6049 22.3626 31.8749C22.3626 32.145 22.2487 32.404 22.046 32.5949L15.223 39.016L15.8563 39.6128L20.9449 34.8211C21.0452 34.7265 21.1643 34.6516 21.2953 34.6004C21.4264 34.5492 21.5669 34.5229 21.7087 34.5229C21.8506 34.5229 21.9911 34.5492 22.1222 34.6004C22.2532 34.6516 22.3723 34.7265 22.4726 34.8211C22.5729 34.9156 22.6525 35.0278 22.7068 35.1513C22.7611 35.2749 22.789 35.4072 22.789 35.5409C22.789 35.6746 22.7611 35.807 22.7068 35.9305C22.6525 36.054 22.5729 36.1662 22.4726 36.2608L17.3818 41.0539L17.3908 41.061L16.6872 41.7247ZM36.8595 30.4702V41.724H21.8319V38.0482L23.1014 36.8533C23.4706 36.5052 23.678 36.0331 23.678 35.5409C23.678 35.0487 23.4706 34.5767 23.1014 34.2285C22.8287 33.9712 22.4813 33.7957 22.1028 33.7242L22.6747 33.1867C23.0439 32.8389 23.2514 32.3672 23.2516 31.8753C23.2519 31.3834 23.045 30.9115 22.6762 30.5633C22.4016 30.3034 22.0507 30.1268 21.6687 30.0562C22.0253 29.7023 22.2194 29.2301 22.2088 28.7421C22.1982 28.2542 21.9837 27.7899 21.6119 27.45C21.2402 27.1102 20.7412 26.9223 20.2233 26.9272C19.7054 26.932 19.2105 27.1292 18.846 27.4759L18.298 27.9915C18.2284 27.6622 18.0651 27.3569 17.8256 27.1083C17.5862 26.8597 17.2795 26.677 16.9384 26.5799C16.5974 26.4827 16.2347 26.4747 15.8892 26.5568C15.5437 26.6388 15.2283 26.8077 14.9768 27.0456L13.187 28.7307H12.1847C11.9974 28.731 11.813 28.6875 11.6479 28.6043C11.4828 28.521 11.3422 28.4005 11.2385 28.2535C11.1349 28.1065 11.0715 27.9376 11.054 27.7619C11.0365 27.5862 11.0654 27.4092 11.1383 27.2466L14.0733 20.2759C14.0733 20.2759 14.3809 17.3888 14.6556 16.2799C15.8825 11.3069 21.7683 6.7903 28.157 6.7903C35.9381 6.7903 42.2393 12.7247 42.2393 20.0495C42.2393 24.2769 40.1306 28.0458 36.8595 30.4702Z" fill="#E8D633"/>
</g>
<defs>
<clipPath id="clip0_394_6169">
<rect width="47.25" height="47.25" fill="white"/>
</clipPath>
</defs>
</svg>
