<svg width="63" height="63" viewBox="0 0 63 63" fill="none" xmlns="http://www.w3.org/2000/svg">
<path d="M27.9168 10.7992C24.8613 7.95895 21.1811 7.54551 17.9668 8.24901C14.8076 8.93938 11.9687 10.7231 10.265 12.5278C8.16503 14.7498 6.19234 17.5979 6.02565 21.7126V21.7231C5.95478 23.7483 6.21859 26.7395 7.83165 28.9616L8.01278 29.2136C9.63372 31.4579 10.5918 32.7862 11.067 34.1171L11.0709 34.1276C11.6143 35.6159 11.6287 37.0978 11.6484 39.2004L11.6537 39.7648C11.6825 42.6785 12.5133 47.3563 14.7433 50.7714C15.8195 52.4225 17.2961 53.886 19.2714 54.6196L19.3475 54.6485L19.4263 54.6682C20.9973 55.0829 22.4844 54.9963 23.688 54.1064C24.8115 53.2756 25.3575 51.9776 25.6738 50.7701C25.9953 49.535 26.1502 48.0886 26.2723 46.6567C26.3077 46.2367 26.3405 45.8193 26.3733 45.4006C26.4573 44.3375 26.54 43.2718 26.67 42.1955C26.7602 41.4118 26.8841 40.6323 27.0414 39.8593C27.5008 37.6634 28.0284 36.3916 28.5363 35.6369C28.9852 34.9676 29.438 34.6749 29.9407 34.4938C31.4304 34.1171 32.3741 34.3113 33.0146 34.6749C33.7023 35.0647 34.2995 35.7931 34.7957 36.9258C35.8155 39.2568 36.1055 42.5499 36.3483 45.524V45.5279C36.5977 48.4863 37.2198 51.1861 38.3853 52.9252C38.9852 53.8203 39.8343 54.617 40.9933 54.8966C42.1772 55.1827 43.3387 54.848 44.3677 54.1878L44.369 54.1865C48.1359 51.7649 50.3107 46.5911 50.9053 39.9984C51.1547 37.2054 51.4815 35.7262 51.9947 34.4281C52.4107 33.3781 52.9488 32.4305 53.7705 30.9868L53.7731 30.9841C54.0238 30.5418 54.3033 30.0523 54.6131 29.4997C55.4583 27.9982 56.8194 25.2892 56.9717 22.1274C57.1292 18.8488 55.9755 15.2341 52.0852 12.1143C48.3708 9.10476 44.919 8.01013 41.8385 8.1742C38.783 8.33695 36.3365 9.72426 34.5896 11.2297L34.5489 11.2651L34.5108 11.3019C32.7954 12.9845 31.9895 13.3034 31.4488 13.2798C30.845 13.2536 29.8908 12.7837 27.9641 10.8451L27.9418 10.8215L27.9168 10.7992ZM29.9407 34.4938L29.879 34.5095L29.9945 34.4754C29.9765 34.4814 29.9586 34.4875 29.9407 34.4938ZM41.5524 16.0702C45.0817 16.0702 48.275 19.1493 48.6202 22.9293C48.6398 23.1439 48.6169 23.3602 48.5528 23.566C48.4888 23.7717 48.3849 23.9628 48.2469 24.1284C48.109 24.294 47.9399 24.4308 47.7491 24.531C47.5583 24.6312 47.3497 24.6928 47.1351 24.7124C46.9205 24.7319 46.7042 24.709 46.4985 24.645C46.2927 24.5809 46.1016 24.477 45.936 24.3391C45.7705 24.2012 45.6337 24.032 45.5335 23.8412C45.4333 23.6505 45.3717 23.4418 45.3521 23.2273C45.146 20.9698 43.2219 19.3514 41.5524 19.3514C41.1173 19.3514 40.7 19.1786 40.3923 18.8709C40.0846 18.5632 39.9118 18.1459 39.9118 17.7108C39.9118 17.2757 40.0846 16.8584 40.3923 16.5507C40.7 16.243 41.1173 16.0702 41.5524 16.0702Z" fill="#E8D633"/>
</svg>
