<svg width="53" height="53" viewBox="0 0 53 53" fill="none" xmlns="http://www.w3.org/2000/svg">
<path d="M18.625 34.1571V35.6875C18.625 38.8204 19.8695 41.8249 22.0848 44.0402C24.3001 46.2555 27.3046 47.5 30.4375 47.5C33.5704 47.5 36.5749 46.2555 38.7902 44.0402C41.0055 41.8249 42.25 38.8204 42.25 35.6875V31.3037C40.4978 30.6845 39.021 29.4657 38.0806 27.8629C37.1401 26.26 36.7966 24.3763 37.1107 22.5447C37.4249 20.713 38.3765 19.0514 39.7973 17.8536C41.2181 16.6557 43.0166 15.9987 44.875 15.9987C46.7334 15.9987 48.5319 16.6557 49.9527 17.8536C51.3735 19.0514 52.3251 20.713 52.6393 22.5447C52.9534 24.3763 52.6099 26.26 51.6694 27.8629C50.729 29.4657 49.2522 30.6845 47.5 31.3037V35.6875C47.5 40.2128 45.7023 44.5527 42.5025 47.7525C39.3027 50.9523 34.9628 52.75 30.4375 52.75C25.9122 52.75 21.5723 50.9523 18.3725 47.7525C15.1727 44.5527 13.375 40.2128 13.375 35.6875V34.1571C9.70506 33.5357 6.37364 31.6351 3.9712 28.792C1.56876 25.949 0.250477 22.3472 0.25 18.625L0.25 5.5C0.25 4.10761 0.803123 2.77226 1.78769 1.78769C2.77226 0.803123 4.10761 0.25 5.5 0.25L8.125 0.25C8.82119 0.25 9.48887 0.526562 9.98116 1.01884C10.4734 1.51113 10.75 2.17881 10.75 2.875C10.75 3.57119 10.4734 4.23887 9.98116 4.73116C9.48887 5.22344 8.82119 5.5 8.125 5.5H5.5V18.625C5.5 21.4098 6.60625 24.0805 8.57538 26.0496C10.5445 28.0188 13.2152 29.125 16 29.125C18.7848 29.125 21.4555 28.0188 23.4246 26.0496C25.3938 24.0805 26.5 21.4098 26.5 18.625V5.5H23.875C23.1788 5.5 22.5111 5.22344 22.0188 4.73116C21.5266 4.23887 21.25 3.57119 21.25 2.875C21.25 2.17881 21.5266 1.51113 22.0188 1.01884C22.5111 0.526562 23.1788 0.25 23.875 0.25L26.5 0.25C27.8924 0.25 29.2277 0.803123 30.2123 1.78769C31.1969 2.77226 31.75 4.10761 31.75 5.5V18.625C31.7495 22.3472 30.4312 25.949 28.0288 28.792C25.6264 31.6351 22.2949 33.5357 18.625 34.1571ZM44.875 26.5C45.5712 26.5 46.2389 26.2234 46.7312 25.7312C47.2234 25.2389 47.5 24.5712 47.5 23.875C47.5 23.1788 47.2234 22.5111 46.7312 22.0188C46.2389 21.5266 45.5712 21.25 44.875 21.25C44.1788 21.25 43.5111 21.5266 43.0188 22.0188C42.5266 22.5111 42.25 23.1788 42.25 23.875C42.25 24.5712 42.5266 25.2389 43.0188 25.7312C43.5111 26.2234 44.1788 26.5 44.875 26.5Z" fill="#E8D633"/>
</svg>
