<svg width="63" height="63" viewBox="0 0 63 63" fill="none" xmlns="http://www.w3.org/2000/svg">
<path d="M28.0875 33.4031L25.8563 30.0562C25.6375 29.7062 25.3312 29.4219 24.9375 29.2031C24.5438 28.9844 24.1281 28.875 23.6906 28.875H6.49687C6.01562 27.7375 5.6875 26.6437 5.5125 25.5938C5.3375 24.5438 5.25 23.45 5.25 22.3125C5.25 18.2 6.62813 14.7656 9.38438 12.0094C12.1406 9.25312 15.575 7.875 19.6875 7.875C21.9625 7.875 24.1281 8.35625 26.1844 9.31875C28.2406 10.2812 30.0125 11.6375 31.5 13.3875C32.9875 11.6375 34.7594 10.2812 36.8156 9.31875C38.8719 8.35625 41.0375 7.875 43.3125 7.875C47.425 7.875 50.8594 9.25312 53.6156 12.0094C56.3719 14.7656 57.75 18.2 57.75 22.3125C57.75 23.45 57.6625 24.5438 57.4875 25.5938C57.3125 26.6437 56.9844 27.7375 56.5031 28.875H40.8844L36.3563 22.1812C36.0938 21.7875 35.7551 21.4918 35.3404 21.294C34.9256 21.0963 34.4767 20.9983 33.9937 21C33.425 21 32.9332 21.1645 32.5185 21.4935C32.1037 21.8225 31.808 22.2486 31.6313 22.7719L28.0875 33.4031ZM31.5 56.0438L27.6938 52.6312C23.1 48.5187 19.3375 44.9969 16.4062 42.0656C13.475 39.1344 11.1781 36.4875 9.51562 34.125H22.1156L26.6437 40.8188C26.9062 41.2125 27.2458 41.5082 27.6623 41.706C28.0788 41.9037 28.5268 42.0018 29.0063 42C29.575 42 30.0676 41.8355 30.4841 41.5065C30.9006 41.1775 31.1955 40.7514 31.3687 40.2281L34.9125 29.5312L37.2094 32.9438C37.4281 33.2938 37.7344 33.5781 38.1281 33.7969C38.5219 34.0156 38.9375 34.125 39.375 34.125H53.4844C51.8219 36.4875 49.525 39.1344 46.5938 42.0656C43.6625 44.9969 39.9 48.5187 35.3062 52.6312L31.5 56.0438Z" fill="#E8D633"/>
</svg>
