<svg width="63" height="63" viewBox="0 0 63 63" fill="none" xmlns="http://www.w3.org/2000/svg">
<path d="M25.5938 55.125C23.3625 55.125 21.4375 54.348 19.8188 52.794C18.2 51.24 17.2812 49.371 17.0625 47.187C14.4375 46.8353 12.25 45.675 10.5 43.7063C8.75 41.7375 7.875 39.4188 7.875 36.75C7.875 35.8313 7.99575 34.9239 8.23725 34.0279C8.47875 33.1319 8.83925 32.2893 9.31875 31.5C8.8375 30.7125 8.477 29.8813 8.23725 29.0063C7.9975 28.1313 7.87675 27.2125 7.875 26.25C7.875 23.5813 8.75 21.273 10.5 19.3253C12.25 17.3775 14.4156 16.2295 16.9969 15.8813C17.1281 13.65 18.025 11.7574 19.6875 10.2034C21.35 8.64938 23.3188 7.87325 25.5938 7.875C26.7313 7.875 27.7926 8.09375 28.7779 8.53125C29.7631 8.96875 30.6705 9.55938 31.5 10.3031C32.2875 9.55938 33.1844 8.96875 34.1906 8.53125C35.1969 8.09375 36.2687 7.875 37.4062 7.875C39.6812 7.875 41.6395 8.64063 43.281 10.1719C44.9225 11.7031 45.808 13.5844 45.9375 15.8156C48.5187 16.1656 50.6958 17.325 52.4685 19.2938C54.2413 21.2625 55.1268 23.5813 55.125 26.25C55.125 27.2125 55.0042 28.1313 54.7627 29.0063C54.5212 29.8813 54.1608 30.7125 53.6813 31.5C54.1625 32.2875 54.5239 33.1301 54.7654 34.0279C55.0069 34.9256 55.1268 35.833 55.125 36.75C55.125 39.4625 54.2395 41.7926 52.4685 43.7404C50.6975 45.6881 48.4986 46.8361 45.8719 47.1844C45.6531 49.3719 44.7449 51.2426 43.1471 52.7966C41.5494 54.3506 39.6357 55.1268 37.4062 55.125C36.3125 55.125 35.2511 54.9168 34.2221 54.5003C33.1931 54.0838 32.2857 53.5045 31.5 52.7625C30.6688 53.5063 29.75 54.0864 28.7437 54.5029C27.7375 54.9194 26.6875 55.1268 25.5938 55.125ZM34.125 16.4063V46.5938C34.125 47.5125 34.4426 48.2895 35.0779 48.9248C35.7131 49.56 36.4893 49.8768 37.4062 49.875C38.2812 49.875 39.0364 49.525 39.6716 48.825C40.3069 48.125 40.6455 47.3375 40.6875 46.4625C39.7687 46.1125 38.9261 45.6426 38.1596 45.0529C37.3931 44.4631 36.7045 43.7518 36.0938 42.9188C35.6562 42.3063 35.4918 41.65 35.6003 40.95C35.7087 40.25 36.0701 39.6813 36.6844 39.2438C37.2969 38.8063 37.9531 38.6426 38.6531 38.7529C39.3531 38.8631 39.9219 39.2236 40.3594 39.8344C40.8406 40.5344 41.4531 41.0708 42.1969 41.4435C42.9406 41.8163 43.75 42.0018 44.625 42C46.0687 42 47.3051 41.4855 48.3341 40.4565C49.3631 39.4275 49.8768 38.192 49.875 36.75C49.875 36.5313 49.8636 36.3125 49.8409 36.0938C49.8181 35.875 49.7639 35.6563 49.6781 35.4375C48.9344 35.875 48.1355 36.2031 47.2815 36.4219C46.4275 36.6406 45.542 36.75 44.625 36.75C43.8812 36.75 43.2574 36.498 42.7534 35.994C42.2494 35.49 41.9982 34.867 42 34.125C42 33.3813 42.252 32.7574 42.756 32.2534C43.26 31.7494 43.883 31.4983 44.625 31.5C46.0687 31.5 47.3051 30.9855 48.3341 29.9565C49.3631 28.9275 49.8768 27.692 49.875 26.25C49.875 24.8063 49.3605 23.5813 48.3315 22.575C47.3025 21.5688 46.067 21.0438 44.625 21C44.1437 21.7875 43.5199 22.477 42.7534 23.0685C41.9869 23.66 41.1451 24.1299 40.2281 24.4781C39.5281 24.7406 38.85 24.7188 38.1938 24.4125C37.5375 24.1063 37.1 23.6031 36.8813 22.9031C36.6625 22.2031 36.6958 21.525 36.981 20.8688C37.2663 20.2125 37.758 19.775 38.4562 19.5563C39.1125 19.3375 39.6489 18.9438 40.0654 18.375C40.4819 17.8063 40.6893 17.15 40.6875 16.4063C40.6875 15.4875 40.3708 14.7114 39.7372 14.0779C39.1037 13.4444 38.3267 13.1268 37.4062 13.125C36.4875 13.125 35.7105 13.4426 35.0753 14.0779C34.44 14.7131 34.1232 15.4893 34.125 16.4063ZM28.875 46.5938V16.4063C28.875 15.4875 28.5574 14.7105 27.9221 14.0753C27.2869 13.44 26.5107 13.1233 25.5938 13.125C24.675 13.125 23.898 13.4426 23.2628 14.0779C22.6275 14.7131 22.3108 15.4893 22.3125 16.4063C22.3125 17.1063 22.5094 17.752 22.9031 18.3435C23.2969 18.935 23.8219 19.3393 24.4781 19.5563C25.1781 19.775 25.6812 20.2125 25.9875 20.8688C26.2937 21.525 26.3375 22.2031 26.1187 22.9031C25.8562 23.6031 25.3969 24.1063 24.7406 24.4125C24.0844 24.7188 23.4062 24.7406 22.7062 24.4781C21.7875 24.1281 20.9449 23.6583 20.1784 23.0685C19.4119 22.4788 18.7889 21.7893 18.3094 21C16.9094 21.0438 15.6957 21.5801 14.6685 22.6091C13.6412 23.6381 13.1267 24.8518 13.125 26.25C13.125 27.6938 13.6395 28.9301 14.6685 29.9591C15.6975 30.9881 16.933 31.5018 18.375 31.5C19.1187 31.5 19.7426 31.752 20.2466 32.256C20.7506 32.76 21.0017 33.383 21 34.125C21 34.8688 20.748 35.4926 20.244 35.9966C19.74 36.5006 19.117 36.7518 18.375 36.75C17.4563 36.75 16.5708 36.6406 15.7185 36.4219C14.8662 36.2031 14.0674 35.875 13.3219 35.4375C13.2344 35.6563 13.1793 35.875 13.1565 36.0938C13.1338 36.3125 13.1233 36.5313 13.125 36.75C13.125 38.1938 13.6395 39.4301 14.6685 40.4591C15.6975 41.4881 16.933 42.0018 18.375 42C19.25 42 20.0594 41.8136 20.8031 41.4409C21.5469 41.0681 22.1594 40.5326 22.6406 39.8344C23.0781 39.2219 23.6469 38.8605 24.3469 38.7503C25.0469 38.64 25.7031 38.8045 26.3156 39.2438C26.9281 39.6813 27.2895 40.25 27.3997 40.95C27.51 41.65 27.3455 42.3063 26.9062 42.9188C26.2938 43.75 25.5938 44.4719 24.8062 45.0844C24.0187 45.6969 23.1656 46.1781 22.2469 46.5281C22.2906 47.4031 22.6406 48.1801 23.2969 48.8591C23.9531 49.5381 24.7188 49.8768 25.5938 49.875C26.5125 49.875 27.2895 49.5574 27.9247 48.9221C28.56 48.2869 28.8768 47.5108 28.875 46.5938Z" fill="#E8D633"/>
</svg>
