<svg width="63" height="63" viewBox="0 0 63 63" fill="none" xmlns="http://www.w3.org/2000/svg">
<path d="M31.5 11.8125C18.375 11.8125 7.16625 19.9763 2.625 31.5C7.16625 43.0238 18.375 51.1875 31.5 51.1875C44.625 51.1875 55.8338 43.0238 60.375 31.5C55.8338 19.9763 44.625 11.8125 31.5 11.8125ZM31.5 44.625C24.255 44.625 18.375 38.745 18.375 31.5C18.375 24.255 24.255 18.375 31.5 18.375C38.745 18.375 44.625 24.255 44.625 31.5C44.625 38.745 38.745 44.625 31.5 44.625ZM31.5 23.625C27.1425 23.625 23.625 27.1425 23.625 31.5C23.625 35.8575 27.1425 39.375 31.5 39.375C35.8575 39.375 39.375 35.8575 39.375 31.5C39.375 27.1425 35.8575 23.625 31.5 23.625Z" fill="#E8D633"/>
</svg>
