<svg width="63" height="63" viewBox="0 0 63 63" fill="none" xmlns="http://www.w3.org/2000/svg">
<path fill-rule="evenodd" clip-rule="evenodd" d="M11.8125 7.875C10.7682 7.875 9.76669 8.28984 9.02827 9.02827C8.28984 9.76669 7.875 10.7682 7.875 11.8125V51.1875C7.875 52.2318 8.28984 53.2333 9.02827 53.9717C9.76669 54.7102 10.7682 55.125 11.8125 55.125H51.1875C52.2318 55.125 53.2333 54.7102 53.9717 53.9717C54.7102 53.2333 55.125 52.2318 55.125 51.1875V11.8125C55.125 10.7682 54.7102 9.76669 53.9717 9.02827C53.2333 8.28984 52.2318 7.875 51.1875 7.875H11.8125ZM36.8222 18.7399C36.8336 19.4844 36.6968 20.2237 36.4197 20.9148C36.1427 21.6059 35.731 22.2351 35.2085 22.7656C34.6861 23.2961 34.0633 23.7174 33.3765 24.0049C32.6897 24.2925 31.9525 24.4406 31.208 24.4406C30.4634 24.4406 29.7262 24.2925 29.0394 24.0049C28.3526 23.7174 27.7299 23.2961 27.2074 22.7656C26.685 22.2351 26.2732 21.6059 25.9962 20.9148C25.7192 20.2237 25.5824 19.4844 25.5938 18.7399C25.6163 17.2658 26.2177 15.8596 27.2681 14.8252C28.3185 13.7907 29.7337 13.2108 31.208 13.2108C32.6823 13.2108 34.0974 13.7907 35.1478 14.8252C36.1982 15.8596 36.7996 17.2658 36.8222 18.7399ZM36.3129 30.5944C38.0992 30.3397 39.9748 29.9539 42.0472 29.442C42.3839 29.3612 42.7012 29.2145 42.9809 29.0105C43.2606 28.8066 43.4972 28.5493 43.6771 28.2535C43.857 27.9577 43.9766 27.6292 44.029 27.287C44.0814 26.9448 44.0656 26.5956 43.9825 26.2596C43.8994 25.9235 43.7507 25.6072 43.5448 25.3288C43.339 25.0505 43.0801 24.8156 42.7832 24.6377C42.4862 24.4598 42.1569 24.3424 41.8144 24.2923C41.4718 24.2421 41.1228 24.2602 40.7873 24.3456C36.9219 25.3011 34.0384 25.7237 31.2191 25.7119C28.3907 25.7014 25.4966 25.2551 21.6011 24.3377C21.2655 24.2587 20.9177 24.2467 20.5774 24.3022C20.2372 24.3577 19.9112 24.4796 19.6181 24.6611C19.325 24.8426 19.0705 25.08 18.8691 25.3598C18.6678 25.6397 18.5235 25.9564 18.4446 26.292C18.3656 26.6276 18.3536 26.9754 18.409 27.3157C18.4645 27.6559 18.5865 27.9819 18.768 28.275C18.9494 28.5681 19.1869 28.8226 19.4667 29.024C19.7465 29.2254 20.0633 29.3696 20.3989 29.4486C22.4556 29.9329 24.3232 30.3109 26.1043 30.5681V32.5211H36.3129V30.5944ZM26.1043 34.5621V36.5439C26.1043 37.1897 26.6871 38.85 28.4734 39.6454C28.6781 39.7372 28.9065 39.8501 29.1139 39.9538L29.2359 40.0129C29.4893 40.1389 29.7347 40.257 29.9841 40.3633C30.5012 40.5825 30.9054 40.6875 31.2086 40.6875C31.5105 40.6875 31.9148 40.5825 32.4332 40.3633C32.6826 40.2583 32.928 40.1389 33.1813 40.0129L33.3034 39.9525C33.5094 39.8501 33.7391 39.7359 33.9439 39.6454C35.7302 38.85 36.3129 37.1897 36.3129 36.5426V34.5621H26.1043ZM22.6078 44.7602C22.6078 42.4725 23.4793 40.7387 25.0635 39.3593C25.5518 40.1835 26.3629 41.013 27.5691 41.5616C27.3866 41.7323 27.2147 41.9317 27.0506 42.1759C26.5388 42.9358 26.1004 43.8743 26.1004 44.7602C26.1004 45.5687 26.4324 46.2643 26.6844 46.7919L26.7015 46.8313C26.9797 47.4128 27.1543 47.8052 27.1543 48.2186C27.1543 49.1505 26.3537 49.875 25.4087 49.875C24.5267 49.875 23.8298 49.287 23.31 48.1517C22.8021 47.0413 22.6078 45.6711 22.6078 44.7602ZM34.8482 41.5616C36.0557 41.013 36.8655 40.1835 37.3537 39.3593C38.9366 40.7374 39.8081 42.4712 39.8081 44.7589C39.8081 45.6724 39.6139 47.0413 39.1073 48.1504C38.5875 49.287 37.8892 49.8737 37.0072 49.8737C36.0622 49.8737 35.2616 49.1505 35.2616 48.2186C35.2616 47.8039 35.4375 47.4128 35.7144 46.83L35.7328 46.7906C35.9835 46.2643 36.3156 45.5687 36.3156 44.7589C36.3156 43.8743 35.8772 42.9345 35.3666 42.1746C35.2173 41.9515 35.0434 41.7459 34.8482 41.5616Z" fill="#E8D633"/>
</svg>
