<svg width="33" height="35" viewBox="0 0 33 35" fill="none" xmlns="http://www.w3.org/2000/svg">
<path d="M16.5 18.4211C15.9806 18.4211 15.5448 18.2442 15.1928 17.8905C14.8408 17.5368 14.6654 17.0997 14.6667 16.5789V1.84211C14.6667 1.32018 14.8427 0.882374 15.1947 0.52869C15.5467 0.175006 15.9818 -0.0012217 16.5 6.37407e-06C17.0194 6.37407e-06 17.4552 0.176849 17.8072 0.530533C18.1592 0.884217 18.3346 1.32141 18.3333 1.84211V16.5789C18.3333 17.1009 18.1573 17.5387 17.8053 17.8924C17.4533 18.2461 17.0182 18.4223 16.5 18.4211ZM16.5 35C14.2083 35 12.0615 34.5622 10.0595 33.6866C8.0575 32.811 6.31583 31.6296 4.8345 30.1424C3.35317 28.6527 2.17739 26.9027 1.30717 24.8924C0.436945 22.882 0.00122222 20.7249 0 18.4211C0 16.5482 0.305555 14.7289 0.916667 12.9629C1.52778 11.1969 2.41389 9.57772 3.575 8.10527C3.91111 7.67544 4.33889 7.4679 4.85833 7.48264C5.37778 7.49737 5.83611 7.70492 6.23333 8.10527C6.56944 8.44299 6.72222 8.85746 6.69167 9.34869C6.66111 9.83992 6.49305 10.3004 6.1875 10.7303C5.3625 11.8355 4.73611 13.0482 4.30833 14.3684C3.88055 15.6886 3.66667 17.0395 3.66667 18.4211C3.66667 22.0132 4.91211 25.0606 7.403 27.5634C9.89389 30.0662 12.9262 31.317 16.5 31.3158C20.075 31.3158 23.1079 30.0644 25.5988 27.5616C28.0897 25.0588 29.3346 22.0119 29.3333 18.4211C29.3333 17.0088 29.1268 15.6346 28.7137 14.2984C28.3006 12.9623 27.6516 11.7422 26.7667 10.6382C26.4611 10.239 26.2931 9.80123 26.2625 9.32474C26.2319 8.84825 26.3847 8.44176 26.7208 8.10527C27.0875 7.73685 27.5306 7.54465 28.05 7.52869C28.5694 7.51272 28.9972 7.70492 29.3333 8.10527C30.525 9.57895 31.4343 11.1908 32.0613 12.9408C32.6883 14.6908 33.0012 16.5175 33 18.4211C33 20.7237 32.5643 22.8808 31.6928 24.8924C30.8214 26.9039 29.6456 28.6539 28.1655 30.1424C26.6829 31.6308 24.9413 32.8128 22.9405 33.6884C20.9397 34.564 18.7929 35.0012 16.5 35Z" fill="#2381F9"/>
</svg>
