<svg width="33" height="31" viewBox="0 0 33 31" fill="none" xmlns="http://www.w3.org/2000/svg">
<path d="M25.3902 6.85634C26.3696 6.85634 27.1233 6.10298 27.1233 5.12332V1.73302C27.1233 0.753631 26.3699 0 25.3902 0C24.4109 0 23.6572 0.753362 23.6572 1.73302V5.04818C23.6572 6.02757 24.4109 6.85634 25.3902 6.85634Z" fill="white"/>
<path d="M7.60997 6.85634C8.58937 6.85634 9.343 6.10298 9.343 5.12332V1.73302C9.343 0.753631 8.58963 0 7.60997 0C6.63058 0 5.87695 0.753362 5.87695 1.73302V5.04818C5.87695 6.02757 6.63058 6.85634 7.60997 6.85634Z" fill="white"/>
<path d="M31.5686 3.39062H28.5548V5.04824C28.5548 6.78126 27.1232 8.21257 25.3905 8.21257C23.6575 8.21257 22.2262 6.78126 22.2262 5.04824V3.39062H10.774V5.04824C10.774 6.78126 9.34245 8.21257 7.6097 8.21257C5.87668 8.21257 4.44537 6.78126 4.44537 5.04824V3.39062H1.43158C0.678221 3.39062 0 3.99343 0 4.82221V10.0209H32.8495V4.82221C32.9249 4.06885 32.3221 3.39062 31.5687 3.39062H31.5686Z" fill="white"/>
<path fill-rule="evenodd" clip-rule="evenodd" d="M31.5685 30.3632C32.3218 30.3632 33 29.7604 33 28.9316V11H0.0751953L0.0753298 28.9319C0.0753298 29.6767 0.664477 30.348 1.47867 30.3632H31.5685ZM24.4221 14L27 16.7067L15.0667 28.1851L8 21.0808L10.6383 18.4347L15.1225 22.9447L24.4221 14Z" fill="white"/>
</svg>
