<svg width="33" height="39" viewBox="0 0 33 39" fill="none" xmlns="http://www.w3.org/2000/svg">
<path fill-rule="evenodd" clip-rule="evenodd" d="M23.3501 0.0646216C23.7682 0.0242333 24.0961 0 24.4159 0C29.1466 0 32.9918 3.78843 33 8.44117C33 8.83698 32.9672 9.21663 32.9344 9.50743C32.7704 10.7837 32.3359 11.9469 31.6472 12.997C31.6226 13.0374 31.5898 13.0778 31.557 13.1101L16.9468 27.6337C16.8157 27.771 16.6271 27.8438 16.4385 27.8438C16.2499 27.8438 16.0614 27.771 15.9302 27.6337L1.72174 13.514C1.69714 13.4897 1.67255 13.4655 1.64795 13.4332C0.770684 12.2377 0.221367 10.8483 0.0573923 9.40241C0.00819976 9.09546 0 8.74812 0 8.44925C0 3.78843 3.84522 0 8.5759 0C8.90385 0 9.24 0.0161558 9.54335 0.0484665C12.7327 0.403884 15.3399 2.45561 16.4959 5.22626C17.6437 2.496 20.2099 0.45235 23.3337 0.0646216H23.3419H23.3501ZM22.2959 16.1046C22.936 16.1046 23.4523 15.5883 23.4523 14.9482V12.6354C23.4523 11.9953 22.936 11.479 22.2959 11.479H18.8267V8.0099C18.8267 7.36976 18.3105 6.85352 17.6704 6.85352H15.3576C14.7175 6.85352 14.2012 7.36976 14.2012 8.0099V11.479H10.7321C10.0919 11.479 9.57568 11.9953 9.57568 12.6354V14.9482C9.57568 15.5883 10.0919 16.1046 10.7321 16.1046H14.2012V19.5737C14.2012 20.2139 14.7175 20.7301 15.3576 20.7301H17.6704C18.3105 20.7301 18.8267 20.2139 18.8267 19.5737V16.1046H22.2959Z" fill="white"/>
</svg>
