<svg width="33" height="39" viewBox="0 0 33 39" fill="none" xmlns="http://www.w3.org/2000/svg">
<path fill-rule="evenodd" clip-rule="evenodd" d="M15.7163 39V24.4348L8.88632 21.6735C8.55775 21.5406 8.1825 21.588 7.89805 21.7985L6.79466 22.3915L8.03874 26.9915L8.16072 26.9593C9.51036 26.6012 10.8973 27.3947 11.2593 28.7314C11.2593 28.7314 11.9066 31.1255 12.1126 31.8867C12.2456 32.3779 11.9515 32.882 11.4563 33.0138C11.1495 33.0951 10.8105 33.1848 10.5184 33.2625C10.1146 33.3696 9.6997 33.1324 9.59161 32.7323C9.58651 32.7127 9.58114 32.6933 9.57604 32.6737C9.46765 32.2736 9.70736 31.8626 10.1112 31.7555C10.2867 31.7087 10.425 31.6719 10.425 31.6719L9.73848 29.1349C9.60179 28.6299 9.07795 28.3302 8.5688 28.4656C8.02741 28.6092 7.34507 28.7903 6.80373 28.9344C6.29404 29.0692 5.9918 29.5888 6.1282 30.0932L6.81477 32.6306C6.81477 32.6306 6.95259 32.5938 7.12862 32.547C7.53246 32.4399 7.94736 32.6777 8.05545 33.0775C8.06055 33.0971 8.06593 33.1164 8.07102 33.1355C8.17941 33.5359 7.93971 33.9469 7.53586 34.054C7.24381 34.1316 6.90477 34.2216 6.5983 34.3027C6.10305 34.4344 5.59366 34.1431 5.46122 33.6525C5.25519 32.8908 4.6077 30.4972 4.6077 30.4972C4.24631 29.1601 5.04721 27.7855 6.39682 27.4274L6.51852 27.3952L5.37209 23.1558L2.97389 24.4443C1.04299 25.8723 -0.0112121 27.8548 8.994e-05 29.9056C0.0136741 32.362 0.0309372 37.9996 0.0309372 37.9996C0.0326352 38.5525 0.485154 38.9997 1.04326 38.9997H15.717L15.7163 39ZM17.283 24.4348V39H31.9567C32.5148 39 32.9673 38.5528 32.9691 37.9999C32.9691 37.9999 32.9866 32.362 32.9999 29.9059C33.0112 27.8553 31.957 25.8731 30.0267 24.4446L28.1439 23.433L27.06 27.4392C28.1493 28.0807 28.7238 29.3835 28.3799 30.6555C27.9653 32.1888 26.3723 33.0998 24.8249 32.689C23.2772 32.2783 22.3576 30.7001 22.7723 29.1671C23.1161 27.8947 24.2713 27.0512 25.5386 27.0352L26.7199 22.6678L25.1011 21.7984C24.8167 21.5879 24.4414 21.5405 24.1128 21.6734L17.2829 24.4348L17.283 24.4348ZM25.9196 28.6401C26.6274 28.8282 27.0485 29.5502 26.8583 30.2519C26.6687 30.9531 25.9399 31.3703 25.2319 31.1825C24.5241 30.9944 24.103 30.2724 24.2926 29.5707C24.4825 28.8695 25.2113 28.4523 25.9196 28.6401ZM21.9456 18.4266C20.3718 19.9658 18.4774 20.8471 16.4995 20.8471C14.5236 20.8471 12.6309 19.9675 11.0577 18.4306L10.9431 20.8285L16.4933 23.0726H16.5055L22.0557 20.8283L21.9456 18.4266ZM16.4995 0C14.2995 0 12.3134 0.699519 10.8706 2.05985C9.43324 3.41459 8.51321 5.43489 8.51321 8.14667C8.51321 11.2503 9.74201 14.5837 11.6214 16.756C12.9824 18.3283 14.6843 19.2959 16.4995 19.2959C18.3147 19.2959 20.0167 18.3284 21.3776 16.756C23.257 14.584 24.4858 11.2507 24.4858 8.14667C24.4858 5.43497 23.5655 3.41459 22.1287 2.05985C20.6854 0.699512 18.6996 0 16.4992 0H16.4995Z" fill="#4A4A4A"/>
</svg>
