<svg width="63" height="54" viewBox="0 0 63 54" fill="none" xmlns="http://www.w3.org/2000/svg">
<path fill-rule="evenodd" clip-rule="evenodd" d="M44.5774 0.123369C45.3756 0.0462635 46.0017 0 46.6122 0C55.6435 0 62.9843 7.23246 63 16.115C63 16.8706 62.9374 17.5954 62.8748 18.1505C62.5617 20.5871 61.7322 22.8077 60.4174 24.8124C60.3704 24.8895 60.3078 24.9666 60.2452 25.0283L32.353 52.7553C32.1026 53.0175 31.7426 53.1562 31.3826 53.1562C31.0226 53.1562 30.6626 53.0175 30.4122 52.7553L3.28696 25.7994L3.28695 25.7994C3.23999 25.7531 3.19304 25.7068 3.14609 25.6452C1.47131 23.3628 0.422611 20.7104 0.109567 17.9501C0.0156541 17.3641 0 16.701 0 16.1304C0 7.23246 7.34087 0 16.3722 0C16.9983 0 17.64 0.030843 18.2191 0.092527C24.3078 0.771052 29.2852 4.68799 31.4922 9.9774C33.6835 4.76509 38.5826 0.863577 44.5461 0.123369H44.5617H44.5774ZM42.5651 30.7457C43.7872 30.7457 44.7728 29.7602 44.7728 28.5381V24.1228C44.7728 22.9007 43.7872 21.9152 42.5651 21.9152H35.9422V15.2922C35.9422 14.0702 34.9567 13.0846 33.7346 13.0846H29.3193C28.0972 13.0846 27.1117 14.0702 27.1117 15.2922V21.9152H20.4888C19.2667 21.9152 18.2811 22.9007 18.2811 24.1228V28.5381C18.2811 29.7602 19.2667 30.7457 20.4888 30.7457H27.1117V37.3686C27.1117 38.5907 28.0972 39.5763 29.3193 39.5763H33.7346C34.9567 39.5763 35.9422 38.5907 35.9422 37.3686V30.7457H42.5651Z" fill="white"/>
</svg>
