<svg width="34" height="38" viewBox="0 0 34 38" fill="none" xmlns="http://www.w3.org/2000/svg">
<path d="M25.6119 6.91611C26.5998 6.91611 27.36 6.15618 27.36 5.16798V1.74813C27.36 0.760201 26.6001 0 25.6119 0C24.624 0 23.8638 0.75993 23.8638 1.74813V5.09219C23.8638 6.08011 24.624 6.91611 25.6119 6.91611Z" fill="white"/>
<path d="M7.67586 6.91611C8.66379 6.91611 9.42399 6.15618 9.42399 5.16798V1.74813C9.42399 0.760201 8.66406 0 7.67586 0C6.68793 0 5.92773 0.75993 5.92773 1.74813V5.09219C5.92773 6.08011 6.68793 6.91611 7.67586 6.91611Z" fill="white"/>
<path d="M0.0758192 29.64C0.0758192 30.3999 0.683879 31.084 1.51988 31.084H9.72785C7.97972 28.348 6.61173 25.384 6.61173 23.256C6.61173 17.7079 11.1716 13.1481 16.7197 13.1481C22.2678 13.1481 26.8277 17.708 26.8277 23.256C26.8277 25.46 25.3836 28.348 23.7115 31.084L31.8435 31.0838C32.6034 31.0838 33.2876 30.4757 33.2876 29.6397V11.5518H0.0756836L0.0758192 29.64Z" fill="white"/>
<path d="M16.6438 14.4399C11.8559 14.4399 7.90381 18.316 7.90381 23.1799C7.90381 27.9678 16.6438 37.9999 16.6438 37.9999C16.6438 37.9999 25.3837 27.9679 25.3837 23.1799C25.3837 18.3918 21.4316 14.4399 16.6438 14.4399ZM21.1276 24.3959H17.9357V27.5878H15.1997V24.3959H12.0078V21.6599H15.1997V18.468H17.9357V21.6599H21.1276V24.3959Z" fill="white"/>
<path d="M31.8438 3.41992H28.8038V5.09198C28.8038 6.84011 27.3597 8.2839 25.6118 8.2839C23.8637 8.2839 22.4199 6.84011 22.4199 5.09198V3.41992H10.868V5.09198C10.868 6.84011 9.4239 8.2839 7.67604 8.2839C5.92791 8.2839 4.48412 6.84011 4.48412 5.09198V3.41992H1.44406C0.684133 3.41992 0 4.02798 0 4.86398V10.108H33.1359V4.86398C33.212 4.10406 32.6039 3.41992 31.844 3.41992H31.8438Z" fill="white"/>
</svg>
