<svg width="30" height="27" viewBox="0 0 30 27" fill="none" xmlns="http://www.w3.org/2000/svg">
<ellipse cx="15" cy="13.5" rx="15" ry="13.5" fill="#D9D9D9"/>
<path d="M17.4511 6.20223C16.805 5.50441 15.9025 5.12012 14.9064 5.12012C13.905 5.12012 12.9996 5.50208 12.3564 6.19559C11.7063 6.89674 11.3896 7.84966 11.4639 8.87863C11.6114 10.9087 13.1556 12.5601 14.9064 12.5601C16.6572 12.5601 18.1989 10.909 18.3486 8.8793C18.424 7.85962 18.1052 6.9087 17.4511 6.20223V6.20223ZM20.7502 20.0001H9.06269C8.90971 20.0021 8.75821 19.9699 8.61922 19.906C8.48022 19.842 8.35722 19.7479 8.25917 19.6304C8.04335 19.3723 7.95636 19.0199 8.02078 18.6635C8.30101 17.1084 9.17558 15.8021 10.5502 14.8851C11.7714 14.071 13.3183 13.6229 14.9064 13.6229C16.4945 13.6229 18.0415 14.0713 19.2627 14.8851C20.6373 15.8018 21.5119 17.1081 21.7921 18.6632C21.8565 19.0196 21.7695 19.372 21.5537 19.6301C21.4557 19.7476 21.3327 19.8418 21.1937 19.9058C21.0547 19.9698 20.9032 20.002 20.7502 20.0001V20.0001Z" fill="#217CEE"/>
</svg>
