<svg width="170" height="55" viewBox="0 0 170 55" fill="none" xmlns="http://www.w3.org/2000/svg">
<path fill-rule="evenodd" clip-rule="evenodd" d="M37.4834 35.5241H51.6874V17.1583C51.6874 14.2351 53.5645 12.5828 55.6294 12.5828C57.6943 12.5828 59.3838 14.2351 59.3838 17.1583V35.5241H73.5877V17.1583C73.5877 14.2351 75.4649 12.5828 77.5297 12.5828C79.5946 12.5828 81.2841 14.2351 81.2841 17.1583V35.5241H95.488V12.6463C95.488 4.82976 90.9828 0 83.6618 0C78.4058 0 74.9643 2.41488 72.0859 5.71945C70.2088 2.03358 66.6422 0 62.0118 0C57.3189 0 53.8774 2.60553 51.6874 5.46525V0.826143H37.4834V35.5241ZM18.8755 36.4138C27.0099 36.4138 32.2034 32.728 35.2695 26.945L24.945 20.9713C23.5684 23.1955 22.1293 24.4665 19.6264 24.4665C16.8106 24.4665 14.558 21.861 14.558 18.2387V18.1116C14.558 14.6799 16.8106 12.0108 19.8141 12.0108C22.1293 12.0108 23.631 13.2818 24.8199 15.5061L35.0192 9.65951C32.3911 4.00361 27.0725 0.0635484 19.5638 0.0635484C8.42592 0.0635484 0.917236 8.51562 0.917236 18.2387V18.3658C0.917236 28.0888 8.48849 36.4138 18.8755 36.4138ZM132.794 26.945C129.728 32.728 124.535 36.4138 116.4 36.4138C106.013 36.4138 98.4421 28.0888 98.4421 18.3658V18.2387C98.4421 8.51562 105.951 0.0635484 117.089 0.0635484C124.597 0.0635484 129.916 4.00361 132.544 9.65951L124.787 14.1061H121.641V7.95511C121.641 6.82011 120.725 5.90479 119.59 5.90479H115.49C114.355 5.90479 113.439 6.82011 113.439 7.95511V13.9513C113.399 14.0021 113.36 14.0537 113.322 14.1061H107.288C106.153 14.1061 105.238 15.0214 105.238 16.1564V20.2571C105.238 21.3921 106.153 22.3074 107.288 22.3074H113.256C113.315 22.3933 113.376 22.4771 113.439 22.5586V28.4584C113.439 29.5934 114.355 30.5087 115.49 30.5087H119.59C120.725 30.5087 121.641 29.5934 121.641 28.4584V22.3074H124.779L132.794 26.945Z" fill="#00FFC0"/>
<path d="M4.14134 55C5.35775 55 6.07816 54.5157 6.69227 53.8308L5.83015 52.9805C5.38137 53.4411 4.88536 53.7599 4.21219 53.7599C3.11388 53.7599 2.34623 52.8624 2.34623 51.7522V51.7286C2.34623 50.6421 3.10207 49.7446 4.14134 49.7446C4.86174 49.7446 5.32232 50.0634 5.75929 50.524L6.64503 49.5674C6.06635 48.9297 5.33413 48.4927 4.15315 48.4927C2.28718 48.4927 0.917236 49.9808 0.917236 51.7522V51.7759C0.917236 53.5473 2.28718 55 4.14134 55Z" fill="#00FFC0"/>
<path d="M8.0302 47.666H9.56549V46.3079H8.0302V47.666ZM8.08925 54.8582H9.51825V48.6226H8.08925V54.8582Z" fill="#00FFC0"/>
<path d="M13.4761 54.9645C14.0076 54.9645 14.4091 54.8464 14.7634 54.6457V53.4765C14.48 53.6182 14.1965 53.6891 13.8777 53.6891C13.3935 53.6891 13.11 53.4647 13.11 52.9096V49.8508H14.787V48.6226H13.11V46.9102H11.681V48.6226H10.8898V49.8508H11.681V53.134C11.681 54.5039 12.425 54.9645 13.4761 54.9645Z" fill="#00FFC0"/>
<path d="M21.4615 54.8582V51.1617C21.4615 49.4965 20.5639 48.5281 18.7216 48.5281C17.7059 48.5281 17.0327 48.7407 16.3478 49.0478L16.7375 50.1933C17.3044 49.9571 17.824 49.8036 18.5208 49.8036C19.5128 49.8036 20.0561 50.276 20.0561 51.1381V51.2562C19.5719 51.1027 19.0877 50.9964 18.3318 50.9964C16.8792 50.9964 15.8045 51.6578 15.8045 53.0395V53.0631C15.8045 54.315 16.8438 54.9881 18.0248 54.9881C18.9696 54.9881 19.6191 54.5984 20.0443 54.0906V54.8582H21.4615ZM20.0797 52.6025C20.0797 53.382 19.3711 53.9134 18.4263 53.9134C17.7532 53.9134 17.2217 53.5828 17.2217 52.9923V52.9687C17.2217 52.3664 17.7532 52.0002 18.6507 52.0002C19.2058 52.0002 19.7136 52.1065 20.0797 52.2483V52.6025Z" fill="#00FFC0"/>
<path d="M25.2987 54.9763C26.5977 54.9763 27.6134 54.3268 27.6134 53.0159V52.9923C27.6134 51.8703 26.5859 51.457 25.6766 51.1736C24.9444 50.9374 24.2712 50.7484 24.2712 50.2996V50.276C24.2712 49.9099 24.5901 49.6501 25.1451 49.6501C25.6648 49.6501 26.3025 49.8745 26.9048 50.2406L27.4717 49.2249C26.8103 48.788 25.96 48.5163 25.1806 48.5163C23.9405 48.5163 22.9603 49.2367 22.9603 50.4177V50.4413C22.9603 51.6341 23.9878 52.0121 24.9089 52.2719C25.6411 52.4963 26.3025 52.6616 26.3025 53.1458V53.1694C26.3025 53.5828 25.9482 53.8426 25.3341 53.8426C24.6964 53.8426 23.9641 53.5828 23.291 53.0749L22.6532 54.0434C23.4327 54.6575 24.4129 54.9763 25.2987 54.9763Z" fill="#00FFC0"/>
<path d="M32.6067 54.8582H34.0357V51.3507C34.0357 50.3823 34.5789 49.7918 35.3702 49.7918C36.1614 49.7918 36.6338 50.335 36.6338 51.3035V54.8582H38.0628V51.3389C38.0628 50.335 38.6179 49.7918 39.3974 49.7918C40.2004 49.7918 40.661 50.3232 40.661 51.3153V54.8582H42.09V50.8783C42.09 49.3548 41.2633 48.4927 39.9052 48.4927C38.9604 48.4927 38.299 48.9297 37.7912 49.591C37.4605 48.9297 36.8346 48.4927 35.9371 48.4927C34.9805 48.4927 34.4372 49.0123 34.0357 49.5674V48.6226H32.6067V54.8582Z" fill="#00FFC0"/>
<path d="M45.9423 47.8314H47.017L48.4697 46.4732L47.1706 45.8945L45.9423 47.8314ZM46.6864 55C47.8319 55 48.6468 54.5394 49.2373 53.8308L48.3988 53.0868C47.9028 53.571 47.4068 53.8308 46.71 53.8308C45.7888 53.8308 45.0684 53.2639 44.9149 52.2483H49.4971C49.5089 52.1065 49.5207 51.9766 49.5207 51.8467C49.5207 50.0516 48.5169 48.4927 46.5328 48.4927C44.7495 48.4927 43.4859 49.9571 43.4859 51.7404V51.764C43.4859 53.6891 44.8794 55 46.6864 55ZM44.9031 51.3035C45.033 50.335 45.6471 49.6619 46.521 49.6619C47.4658 49.6619 48.0091 50.3823 48.1035 51.3035H44.9031Z" fill="#00FFC0"/>
<path d="M53.5304 54.9881C54.546 54.9881 55.1956 54.4685 55.6562 53.819V54.8582H57.0851V46.237H55.6562V49.591C55.2074 49.0123 54.5578 48.4927 53.5304 48.4927C52.0423 48.4927 50.637 49.6619 50.637 51.7286V51.7522C50.637 53.819 52.0659 54.9881 53.5304 54.9881ZM53.8729 53.7481C52.9044 53.7481 52.0778 52.9568 52.0778 51.7522V51.7286C52.0778 50.4886 52.8926 49.7327 53.8729 49.7327C54.8295 49.7327 55.6798 50.524 55.6798 51.7286V51.7522C55.6798 52.945 54.8295 53.7481 53.8729 53.7481Z" fill="#00FFC0"/>
<path d="M58.8911 47.666H60.4264V46.3079H58.8911V47.666ZM58.9502 54.8582H60.3792V48.6226H58.9502V54.8582Z" fill="#00FFC0"/>
<path d="M65.1283 55C66.3447 55 67.0651 54.5157 67.6793 53.8308L66.8171 52.9805C66.3684 53.4411 65.8724 53.7599 65.1992 53.7599C64.1009 53.7599 63.3332 52.8624 63.3332 51.7522V51.7286C63.3332 50.6421 64.0891 49.7446 65.1283 49.7446C65.8487 49.7446 66.3093 50.0634 66.7463 50.524L67.632 49.5674C67.0533 48.9297 66.3211 48.4927 65.1401 48.4927C63.2742 48.4927 61.9042 49.9808 61.9042 51.7522V51.7759C61.9042 53.5473 63.2742 55 65.1283 55Z" fill="#00FFC0"/>
<path d="M74.2253 54.8582V51.1617C74.2253 49.4965 73.3278 48.5281 71.4855 48.5281C70.4698 48.5281 69.7966 48.7407 69.1117 49.0478L69.5014 50.1933C70.0683 49.9571 70.5879 49.8036 71.2847 49.8036C72.2767 49.8036 72.82 50.276 72.82 51.1381V51.2562C72.3358 51.1027 71.8516 50.9964 71.0957 50.9964C69.6431 50.9964 68.5684 51.6578 68.5684 53.0395V53.0631C68.5684 54.315 69.6077 54.9881 70.7887 54.9881C71.7335 54.9881 72.383 54.5984 72.8082 54.0906V54.8582H74.2253ZM72.8436 52.6025C72.8436 53.382 72.135 53.9134 71.1902 53.9134C70.517 53.9134 69.9856 53.5828 69.9856 52.9923V52.9687C69.9856 52.3664 70.517 52.0002 71.4146 52.0002C71.9697 52.0002 72.4775 52.1065 72.8436 52.2483V52.6025Z" fill="#00FFC0"/>
<path d="M78.0625 54.9763C79.3616 54.9763 80.3773 54.3268 80.3773 53.0159V52.9923C80.3773 51.8703 79.3498 51.457 78.4405 51.1736C77.7083 50.9374 77.0351 50.7484 77.0351 50.2996V50.276C77.0351 49.9099 77.354 49.6501 77.909 49.6501C78.4287 49.6501 79.0664 49.8745 79.6687 50.2406L80.2356 49.2249C79.5742 48.788 78.7239 48.5163 77.9445 48.5163C76.7044 48.5163 75.7242 49.2367 75.7242 50.4177V50.4413C75.7242 51.6341 76.7517 52.0121 77.6728 52.2719C78.405 52.4963 79.0664 52.6616 79.0664 53.1458V53.1694C79.0664 53.5828 78.7121 53.8426 78.098 53.8426C77.4603 53.8426 76.728 53.5828 76.0549 53.0749L75.4171 54.0434C76.1966 54.6575 77.1768 54.9763 78.0625 54.9763Z" fill="#00FFC0"/>
<path d="M90.6023 54.8582V51.1617C90.6023 49.4965 89.7048 48.5281 87.8624 48.5281C86.8468 48.5281 86.1736 48.7407 85.4887 49.0478L85.8784 50.1933C86.4453 49.9571 86.9649 49.8036 87.6617 49.8036C88.6537 49.8036 89.197 50.276 89.197 51.1381V51.2562C88.7128 51.1027 88.2286 50.9964 87.4727 50.9964C86.0201 50.9964 84.9454 51.6578 84.9454 53.0395V53.0631C84.9454 54.315 85.9847 54.9881 87.1657 54.9881C88.1105 54.9881 88.76 54.5984 89.1852 54.0906V54.8582H90.6023ZM89.2206 52.6025C89.2206 53.382 88.512 53.9134 87.5672 53.9134C86.894 53.9134 86.3626 53.5828 86.3626 52.9923V52.9687C86.3626 52.3664 86.894 52.0002 87.7916 52.0002C88.3467 52.0002 88.8545 52.1065 89.2206 52.2483V52.6025Z" fill="#00FFC0"/>
<path d="M97.992 54.9881C98.9604 54.9881 99.5391 54.4803 99.9406 53.8898V54.8582H101.37V48.6226H99.9406V52.142C99.9406 53.1104 99.362 53.6891 98.5353 53.6891C97.685 53.6891 97.2007 53.134 97.2007 52.1656V48.6226H95.7717V52.5907C95.7717 54.0434 96.5866 54.9881 97.992 54.9881Z" fill="#00FFC0"/>
<path d="M103.166 54.8582H104.595V51.3389C104.595 50.3705 105.174 49.7918 106 49.7918C106.851 49.7918 107.335 50.3469 107.335 51.3153V54.8582H108.764V50.8901C108.764 49.4375 107.949 48.4927 106.544 48.4927C105.575 48.4927 104.997 49.0005 104.595 49.591V48.6226H103.166V54.8582Z" fill="#00FFC0"/>
<path d="M116.912 55C118.128 55 118.849 54.5157 119.463 53.8308L118.601 52.9805C118.152 53.4411 117.656 53.7599 116.983 53.7599C115.884 53.7599 115.117 52.8624 115.117 51.7522V51.7286C115.117 50.6421 115.873 49.7446 116.912 49.7446C117.632 49.7446 118.093 50.0634 118.53 50.524L119.416 49.5674C118.837 48.9297 118.105 48.4927 116.924 48.4927C115.058 48.4927 113.688 49.9808 113.688 51.7522V51.7759C113.688 53.5473 115.058 55 116.912 55Z" fill="#00FFC0"/>
<path d="M120.86 54.8582H122.289V46.237H120.86V54.8582Z" fill="#00FFC0"/>
<path d="M124.18 47.666H125.715V46.3079H124.18V47.666ZM124.239 54.8582H125.668V48.6226H124.239V54.8582Z" fill="#00FFC0"/>
<path d="M130.417 55C131.634 55 132.354 54.5157 132.968 53.8308L132.106 52.9805C131.657 53.4411 131.161 53.7599 130.488 53.7599C129.39 53.7599 128.622 52.8624 128.622 51.7522V51.7286C128.622 50.6421 129.378 49.7446 130.417 49.7446C131.138 49.7446 131.598 50.0634 132.035 50.524L132.921 49.5674C132.342 48.9297 131.61 48.4927 130.429 48.4927C128.563 48.4927 127.193 49.9808 127.193 51.7522V51.7759C127.193 53.5473 128.563 55 130.417 55Z" fill="#00FFC0"/>
<path fill-rule="evenodd" clip-rule="evenodd" d="M134.849 29.4952C133.58 30.5039 132.809 32.3316 132.809 35.9217C132.809 37.2524 132.548 39.2045 131.402 40.8509C130.214 42.5592 128.173 43.7949 124.936 43.7949C121.688 43.7949 119.612 42.5109 118.409 40.7917C117.256 39.1445 116.976 37.2037 117.062 35.888V30.5088H119.031V35.9568L119.028 35.9918C118.958 36.972 119.176 38.455 120.021 39.663C120.827 40.8143 122.278 41.8266 124.936 41.8266C127.603 41.8266 129.007 40.848 129.787 39.7268C130.61 38.5437 130.841 37.0513 130.841 35.9217C130.841 32.1305 131.644 29.5295 133.623 27.9548C135.538 26.4314 138.318 26.0801 141.666 26.0801V28.0484C138.322 28.0484 136.181 28.4352 134.849 29.4952Z" fill="#E9F3FF"/>
<circle cx="146.587" cy="27.0642" r="5.41286" fill="#E9F3FF"/>
<path d="M160.27 28.0827C159.611 28.5666 159.336 29.4737 159.501 30.2599L159.007 29.5342C158.403 28.627 157.195 28.4456 156.372 29.1108C155.823 29.5947 155.548 30.2599 155.658 30.9856L155.603 30.8647C154.999 29.9575 153.791 29.7761 152.968 30.4413C152.254 31.0461 152.035 32.0742 152.364 32.9814L149.29 28.4456C148.686 27.5989 147.643 27.2965 146.819 27.8408C145.831 28.5061 145.556 29.8971 146.27 30.8647L152.913 40.6015C152.968 40.7225 152.858 40.8434 152.748 40.783L149.07 38.7872C148.137 38.2429 146.984 38.6058 146.545 39.6339C146.051 40.662 146.38 41.932 147.313 42.4158L154.999 47.7983L159.666 50.1569C159.885 50.2779 160.16 50.2174 160.324 50.0965L169.493 42.5368C169.712 42.3554 169.822 41.9925 169.712 41.6296L166.583 34.0095C166.418 33.5862 166.254 33.2233 165.979 32.8604L163.014 28.5061C162.301 27.7199 161.093 27.478 160.27 28.0827Z" fill="#FFF500"/>
</svg>
