<svg width="170" height="55" viewBox="0 0 170 55" fill="none" xmlns="http://www.w3.org/2000/svg">
    <path
        d="M4.14109 55C5.35751 55 6.07791 54.5157 6.69203 53.8308L5.82991 52.9805C5.38113 53.4411 4.88511 53.7599 4.21195 53.7599C3.11363 53.7599 2.34599 52.8624 2.34599 51.7522V51.7286C2.34599 50.6421 3.10182 49.7446 4.14109 49.7446C4.86149 49.7446 5.32208 50.0634 5.75905 50.524L6.64479 49.5674C6.0661 48.9297 5.33389 48.4927 4.1529 48.4927C2.28694 48.4927 0.916992 49.9808 0.916992 51.7522V51.7759C0.916992 53.5473 2.28694 55 4.14109 55Z"
        fill="#00FFC0" />
    <path
        d="M8.02996 47.666H9.56524V46.3079H8.02996V47.666ZM8.08901 54.8582H9.518V48.6226H8.08901V54.8582Z"
        fill="#00FFC0" />
    <path
        d="M13.4759 54.9645C14.0073 54.9645 14.4089 54.8464 14.7632 54.6457V53.4765C14.4797 53.6182 14.1963 53.6891 13.8774 53.6891C13.3932 53.6891 13.1098 53.4647 13.1098 52.9096V49.8508H14.7868V48.6226H13.1098V46.9102H11.6808V48.6226H10.8895V49.8508H11.6808V53.134C11.6808 54.5039 12.4248 54.9645 13.4759 54.9645Z"
        fill="#00FFC0" />
    <path
        d="M21.4612 54.8582V51.1617C21.4612 49.4965 20.5637 48.5281 18.7213 48.5281C17.7057 48.5281 17.0325 48.7407 16.3475 49.0478L16.7373 50.1933C17.3041 49.9571 17.8238 49.8036 18.5206 49.8036C19.5126 49.8036 20.0558 50.276 20.0558 51.1381V51.2562C19.5716 51.1027 19.0874 50.9964 18.3316 50.9964C16.879 50.9964 15.8043 51.6578 15.8043 53.0395V53.0631C15.8043 54.315 16.8435 54.9881 18.0245 54.9881C18.9693 54.9881 19.6189 54.5984 20.044 54.0906V54.8582H21.4612ZM20.0795 52.6025C20.0795 53.382 19.3709 53.9134 18.4261 53.9134C17.7529 53.9134 17.2215 53.5828 17.2215 52.9923V52.9687C17.2215 52.3664 17.7529 52.0002 18.6505 52.0002C19.2055 52.0002 19.7134 52.1065 20.0795 52.2483V52.6025Z"
        fill="#00FFC0" />
    <path
        d="M25.2984 54.9763C26.5975 54.9763 27.6131 54.3268 27.6131 53.0159V52.9923C27.6131 51.8703 26.5857 51.457 25.6763 51.1736C24.9441 50.9374 24.271 50.7484 24.271 50.2996V50.276C24.271 49.9099 24.5898 49.6501 25.1449 49.6501C25.6645 49.6501 26.3023 49.8745 26.9046 50.2406L27.4714 49.2249C26.8101 48.788 25.9598 48.5163 25.1803 48.5163C23.9403 48.5163 22.9601 49.2367 22.9601 50.4177V50.4413C22.9601 51.6341 23.9875 52.0121 24.9087 52.2719C25.6409 52.4963 26.3023 52.6616 26.3023 53.1458V53.1694C26.3023 53.5828 25.948 53.8426 25.3338 53.8426C24.6961 53.8426 23.9639 53.5828 23.2907 53.0749L22.653 54.0434C23.4324 54.6575 24.4127 54.9763 25.2984 54.9763Z"
        fill="#00FFC0" />
    <path
        d="M32.6064 54.8582H34.0354V51.3507C34.0354 50.3823 34.5787 49.7918 35.3699 49.7918C36.1612 49.7918 36.6336 50.335 36.6336 51.3035V54.8582H38.0626V51.3389C38.0626 50.335 38.6177 49.7918 39.3971 49.7918C40.2002 49.7918 40.6608 50.3232 40.6608 51.3153V54.8582H42.0898V50.8783C42.0898 49.3548 41.2631 48.4927 39.9049 48.4927C38.9601 48.4927 38.2988 48.9297 37.791 49.591C37.4603 48.9297 36.8344 48.4927 35.9368 48.4927C34.9802 48.4927 34.437 49.0123 34.0354 49.5674V48.6226H32.6064V54.8582Z"
        fill="#00FFC0" />
    <path
        d="M45.9421 47.8314H47.0168L48.4694 46.4732L47.1703 45.8945L45.9421 47.8314ZM46.6861 55C47.8317 55 48.6466 54.5394 49.2371 53.8308L48.3985 53.0868C47.9025 53.571 47.4065 53.8308 46.7097 53.8308C45.7886 53.8308 45.0682 53.2639 44.9146 52.2483H49.4969C49.5087 52.1065 49.5205 51.9766 49.5205 51.8467C49.5205 50.0516 48.5166 48.4927 46.5326 48.4927C44.7493 48.4927 43.4856 49.9571 43.4856 51.7404V51.764C43.4856 53.6891 44.8792 55 46.6861 55ZM44.9028 51.3035C45.0327 50.335 45.6468 49.6619 46.5208 49.6619C47.4656 49.6619 48.0088 50.3823 48.1033 51.3035H44.9028Z"
        fill="#00FFC0" />
    <path
        d="M53.5301 54.9881C54.5458 54.9881 55.1953 54.4685 55.6559 53.819V54.8582H57.0849V46.237H55.6559V49.591C55.2071 49.0123 54.5576 48.4927 53.5301 48.4927C52.0421 48.4927 50.6367 49.6619 50.6367 51.7286V51.7522C50.6367 53.819 52.0657 54.9881 53.5301 54.9881ZM53.8726 53.7481C52.9042 53.7481 52.0775 52.9568 52.0775 51.7522V51.7286C52.0775 50.4886 52.8924 49.7327 53.8726 49.7327C54.8292 49.7327 55.6795 50.524 55.6795 51.7286V51.7522C55.6795 52.945 54.8292 53.7481 53.8726 53.7481Z"
        fill="#00FFC0" />
    <path
        d="M58.8909 47.666H60.4262V46.3079H58.8909V47.666ZM58.9499 54.8582H60.3789V48.6226H58.9499V54.8582Z"
        fill="#00FFC0" />
    <path
        d="M65.1281 55C66.3445 55 67.0649 54.5157 67.679 53.8308L66.8169 52.9805C66.3681 53.4411 65.8721 53.7599 65.1989 53.7599C64.1006 53.7599 63.333 52.8624 63.333 51.7522V51.7286C63.333 50.6421 64.0888 49.7446 65.1281 49.7446C65.8485 49.7446 66.3091 50.0634 66.746 50.524L67.6318 49.5674C67.0531 48.9297 66.3209 48.4927 65.1399 48.4927C63.2739 48.4927 61.904 49.9808 61.904 51.7522V51.7759C61.904 53.5473 63.2739 55 65.1281 55Z"
        fill="#00FFC0" />
    <path
        d="M74.2251 54.8582V51.1617C74.2251 49.4965 73.3276 48.5281 71.4852 48.5281C70.4696 48.5281 69.7964 48.7407 69.1114 49.0478L69.5012 50.1933C70.068 49.9571 70.5877 49.8036 71.2844 49.8036C72.2765 49.8036 72.8197 50.276 72.8197 51.1381V51.2562C72.3355 51.1027 71.8513 50.9964 71.0955 50.9964C69.6429 50.9964 68.5682 51.6578 68.5682 53.0395V53.0631C68.5682 54.315 69.6074 54.9881 70.7884 54.9881C71.7332 54.9881 72.3828 54.5984 72.8079 54.0906V54.8582H74.2251ZM72.8433 52.6025C72.8433 53.382 72.1348 53.9134 71.19 53.9134C70.5168 53.9134 69.9854 53.5828 69.9854 52.9923V52.9687C69.9854 52.3664 70.5168 52.0002 71.4144 52.0002C71.9694 52.0002 72.4772 52.1065 72.8433 52.2483V52.6025Z"
        fill="#00FFC0" />
    <path
        d="M78.0623 54.9763C79.3614 54.9763 80.377 54.3268 80.377 53.0159V52.9923C80.377 51.8703 79.3496 51.457 78.4402 51.1736C77.708 50.9374 77.0348 50.7484 77.0348 50.2996V50.276C77.0348 49.9099 77.3537 49.6501 77.9088 49.6501C78.4284 49.6501 79.0661 49.8745 79.6684 50.2406L80.2353 49.2249C79.574 48.788 78.7237 48.5163 77.9442 48.5163C76.7042 48.5163 75.7239 49.2367 75.7239 50.4177V50.4413C75.7239 51.6341 76.7514 52.0121 77.6726 52.2719C78.4048 52.4963 79.0661 52.6616 79.0661 53.1458V53.1694C79.0661 53.5828 78.7119 53.8426 78.0977 53.8426C77.46 53.8426 76.7278 53.5828 76.0546 53.0749L75.4169 54.0434C76.1963 54.6575 77.1766 54.9763 78.0623 54.9763Z"
        fill="#00FFC0" />
    <path
        d="M90.6021 54.8582V51.1617C90.6021 49.4965 89.7045 48.5281 87.8622 48.5281C86.8465 48.5281 86.1734 48.7407 85.4884 49.0478L85.8781 50.1933C86.445 49.9571 86.9647 49.8036 87.6614 49.8036C88.6535 49.8036 89.1967 50.276 89.1967 51.1381V51.2562C88.7125 51.1027 88.2283 50.9964 87.4725 50.9964C86.0199 50.9964 84.9452 51.6578 84.9452 53.0395V53.0631C84.9452 54.315 85.9844 54.9881 87.1654 54.9881C88.1102 54.9881 88.7598 54.5984 89.1849 54.0906V54.8582H90.6021ZM89.2203 52.6025C89.2203 53.382 88.5117 53.9134 87.567 53.9134C86.8938 53.9134 86.3623 53.5828 86.3623 52.9923V52.9687C86.3623 52.3664 86.8938 52.0002 87.7913 52.0002C88.3464 52.0002 88.8542 52.1065 89.2203 52.2483V52.6025Z"
        fill="#00FFC0" />
    <path
        d="M97.9918 54.9881C98.9602 54.9881 99.5389 54.4803 99.9404 53.8898V54.8582H101.369V48.6226H99.9404V52.142C99.9404 53.1104 99.3617 53.6891 98.535 53.6891C97.6847 53.6891 97.2005 53.134 97.2005 52.1656V48.6226H95.7715V52.5907C95.7715 54.0434 96.5864 54.9881 97.9918 54.9881Z"
        fill="#00FFC0" />
    <path
        d="M103.166 54.8582H104.595V51.3389C104.595 50.3705 105.174 49.7918 106 49.7918C106.851 49.7918 107.335 50.3469 107.335 51.3153V54.8582H108.764V50.8901C108.764 49.4375 107.949 48.4927 106.544 48.4927C105.575 48.4927 104.996 49.0005 104.595 49.591V48.6226H103.166V54.8582Z"
        fill="#00FFC0" />
    <path
        d="M116.912 55C118.128 55 118.848 54.5157 119.463 53.8308L118.6 52.9805C118.152 53.4411 117.656 53.7599 116.983 53.7599C115.884 53.7599 115.117 52.8624 115.117 51.7522V51.7286C115.117 50.6421 115.872 49.7446 116.912 49.7446C117.632 49.7446 118.093 50.0634 118.53 50.524L119.415 49.5674C118.837 48.9297 118.104 48.4927 116.923 48.4927C115.058 48.4927 113.688 49.9808 113.688 51.7522V51.7759C113.688 53.5473 115.058 55 116.912 55Z"
        fill="#00FFC0" />
    <path d="M120.86 54.8582H122.289V46.237H120.86V54.8582Z" fill="#00FFC0" />
    <path
        d="M124.18 47.666H125.715V46.3079H124.18V47.666ZM124.239 54.8582H125.668V48.6226H124.239V54.8582Z"
        fill="#00FFC0" />
    <path
        d="M130.417 55C131.633 55 132.354 54.5157 132.968 53.8308L132.106 52.9805C131.657 53.4411 131.161 53.7599 130.488 53.7599C129.389 53.7599 128.622 52.8624 128.622 51.7522V51.7286C128.622 50.6421 129.378 49.7446 130.417 49.7446C131.137 49.7446 131.598 50.0634 132.035 50.524L132.921 49.5674C132.342 48.9297 131.61 48.4927 130.429 48.4927C128.563 48.4927 127.193 49.9808 127.193 51.7522V51.7759C127.193 53.5473 128.563 55 130.417 55Z"
        fill="#00FFC0" />
    <path
        d="M18.8753 36.4138C27.0097 36.4138 32.2032 32.728 35.2692 26.945L24.9448 20.9713C23.5682 23.1955 22.129 24.4665 19.6261 24.4665C16.8104 24.4665 14.5578 21.861 14.5578 18.2387V18.1116C14.5578 14.6799 16.8104 12.0108 19.8138 12.0108C22.129 12.0108 23.6308 13.2818 24.8196 15.5061L35.0189 9.65951C32.3909 4.00361 27.0722 0.0635484 19.5636 0.0635484C8.42567 0.0635484 0.916992 8.51562 0.916992 18.2387V18.3658C0.916992 28.0888 8.48825 36.4138 18.8753 36.4138Z"
        fill="#00FFC0" />
    <path
        d="M37.4832 35.5241H51.6871V17.1583C51.6871 14.2351 53.5643 12.5828 55.6292 12.5828C57.6941 12.5828 59.3835 14.2351 59.3835 17.1583V35.5241H73.5874V17.1583C73.5874 14.2351 75.4646 12.5828 77.5295 12.5828C79.5944 12.5828 81.2838 14.2351 81.2838 17.1583V35.5241H95.4878V12.6463C95.4878 4.82976 90.9826 0 83.6616 0C78.4055 0 74.964 2.41488 72.0857 5.71945C70.2085 2.03358 66.6419 0 62.0116 0C57.3186 0 53.8772 2.60553 51.6871 5.46525V0.826143H37.4832V35.5241Z"
        fill="#00FFC0" />
    <path
        d="M116.4 36.4138C124.535 36.4138 129.728 32.728 132.794 26.945L122.47 20.9713C121.093 23.1955 119.654 24.4665 117.151 24.4665C114.335 24.4665 112.083 21.861 112.083 18.2387V18.1116C112.083 14.6799 114.335 12.0108 117.339 12.0108C119.654 12.0108 121.156 13.2818 122.344 15.5061L132.544 9.65951C129.916 4.00361 124.597 0.0635484 117.088 0.0635484C105.951 0.0635484 98.4419 8.51562 98.4419 18.2387V18.3658C98.4419 28.0888 106.013 36.4138 116.4 36.4138Z"
        fill="#00FFC0" />
    <path fill-rule="evenodd" clip-rule="evenodd"
        d="M134.849 29.4952C133.58 30.5039 132.809 32.3316 132.809 35.9217C132.809 37.2524 132.548 39.2045 131.402 40.8509C130.214 42.5592 128.173 43.7949 124.936 43.7949C121.688 43.7949 119.612 42.5109 118.409 40.7917C117.256 39.1445 116.976 37.2037 117.062 35.888V30.5088H119.031V35.9568L119.028 35.9918C118.958 36.972 119.176 38.455 120.021 39.663C120.827 40.8143 122.278 41.8266 124.936 41.8266C127.603 41.8266 129.007 40.848 129.787 39.7268C130.61 38.5437 130.841 37.0513 130.841 35.9217C130.841 32.1305 131.644 29.5295 133.623 27.9548C135.538 26.4314 138.318 26.0801 141.666 26.0801V28.0484C138.322 28.0484 136.181 28.4352 134.849 29.4952Z"
        fill="#E9F3FF" />
    <path
        d="M129.842 20.2573C129.842 21.3923 128.926 22.3076 127.791 22.3076H121.64V28.4586C121.64 29.5936 120.725 30.509 119.59 30.509H115.489C114.354 30.509 113.439 29.5936 113.439 28.4586V22.3076H107.288C106.153 22.3076 105.238 21.3923 105.238 20.2573V16.1567C105.238 15.0217 106.153 14.1063 107.288 14.1063H113.439V7.95536C113.439 6.82036 114.354 5.90503 115.489 5.90503H119.59C120.725 5.90503 121.64 6.82036 121.64 7.95536V14.1063H127.791C128.926 14.1063 129.842 15.0217 129.842 16.1567V20.2573Z"
        fill="url(#paint0_linear_54_4353)" />
    <circle cx="146.587" cy="27.0642" r="5.41286" fill="#E9F3FF" />
    <path
        d="M160.269 28.0827C159.61 28.5666 159.336 29.4737 159.5 30.2599L159.006 29.5342C158.403 28.627 157.195 28.4456 156.371 29.1108C155.822 29.5947 155.548 30.2599 155.658 30.9856L155.603 30.8647C154.999 29.9575 153.791 29.7761 152.967 30.4413C152.254 31.0461 152.034 32.0742 152.364 32.9814L149.289 28.4456C148.685 27.5989 147.642 27.2965 146.819 27.8408C145.831 28.5061 145.556 29.8971 146.27 30.8647L152.913 40.6015C152.967 40.7225 152.858 40.8434 152.748 40.783L149.07 38.7872C148.136 38.2429 146.983 38.6058 146.544 39.6339C146.05 40.662 146.38 41.932 147.313 42.4158L154.999 47.7983L159.665 50.1569C159.885 50.2779 160.159 50.2174 160.324 50.0965L169.492 42.5368C169.712 42.3554 169.822 41.9925 169.712 41.6296L166.583 34.0095C166.418 33.5862 166.253 33.2233 165.979 32.8604L163.014 28.5061C162.3 27.7199 161.093 27.478 160.269 28.0827Z"
        fill="#FFF500" />
    <defs>
        <linearGradient id="paint0_linear_54_4353" x1="117.54" y1="5.90503" x2="117.54" y2="30.509"
            gradientUnits="userSpaceOnUse">
            <stop stop-color="#1A5EB6" />
            <stop offset="1" stop-color="#1D6ACD" />
        </linearGradient>
    </defs>
</svg>
    