<svg width="158" height="53" viewBox="0 0 158 53" fill="none" xmlns="http://www.w3.org/2000/svg">
<path d="M46.3828 12.192C49.5828 12.192 51.1348 10.592 51.1348 8.72C51.1348 4.608 44.6228 6.032 44.6228 3.968C44.6228 3.264 45.2148 2.688 46.7508 2.688C47.7428 2.688 48.8148 2.976 49.8548 3.568L50.6548 1.6C49.6148 0.943999 48.1748 0.608 46.7668 0.608C43.5828 0.608 42.0468 2.192 42.0468 4.096C42.0468 8.256 48.5588 6.816 48.5588 8.912C48.5588 9.6 47.9348 10.112 46.3988 10.112C45.0548 10.112 43.6468 9.632 42.7028 8.944L41.8228 10.896C42.8148 11.664 44.6068 12.192 46.3828 12.192ZM53.0559 12H55.6479V0.799999H53.0559V12ZM61.0319 9.92V7.328H66.2319V5.312H61.0319V2.88H66.9199V0.799999H58.4559V12H67.1279V9.92H61.0319ZM81.9643 12L81.9323 0.799999H79.8043L75.6763 7.76L71.4843 0.799999H69.3403V12H71.7723V5.424L75.0523 10.816H76.2203L79.5163 5.28L79.5323 12H81.9643ZM89.6196 0.799999H84.7716V12H87.3636V8.912H89.6196C92.6116 8.912 94.4836 7.36 94.4836 4.864C94.4836 2.352 92.6116 0.799999 89.6196 0.799999ZM89.4756 6.8H87.3636V2.912H89.4756C91.0596 2.912 91.8596 3.632 91.8596 4.864C91.8596 6.08 91.0596 6.8 89.4756 6.8ZM106.404 12L103.892 8.4C105.348 7.776 106.196 6.544 106.196 4.864C106.196 2.352 104.324 0.799999 101.332 0.799999H96.4841V12H99.0761V8.88H101.332H101.46L103.62 12H106.404ZM103.572 4.864C103.572 6.08 102.772 6.816 101.188 6.816H99.0761V2.912H101.188C102.772 2.912 103.572 3.632 103.572 4.864ZM110.976 9.92V7.328H116.176V5.312H110.976V2.88H116.864V0.799999H108.4V12H117.072V9.92H110.976ZM9.84113 52H12.5611L7.55313 40.8H4.99313L0.00112633 52H2.65713L3.64913 49.6H8.84913L9.84113 52ZM4.48113 47.632L6.25713 43.344L8.03313 47.632H4.48113ZM20.8744 52H23.4664V42.912H27.0504V40.8H17.2904V42.912H20.8744V52ZM33.3835 52.192C36.5675 52.192 38.4555 50.368 38.4555 47.072V40.8H35.8955V46.976C35.8955 49.104 34.9835 49.984 33.3995 49.984C31.8315 49.984 30.9035 49.104 30.9035 46.976V40.8H28.3115V47.072C28.3115 50.368 30.1995 52.192 33.3835 52.192ZM45.8481 52H50.9361C54.6001 52 57.1121 49.792 57.1121 46.4C57.1121 43.008 54.6001 40.8 50.9361 40.8H45.8481V52ZM48.4401 49.872V42.928H50.8081C53.0321 42.928 54.4881 44.256 54.4881 46.4C54.4881 48.544 53.0321 49.872 50.8081 49.872H48.4401ZM59.2169 52H61.8089V40.8H59.2169V52ZM68.2969 52.192C71.4969 52.192 73.0489 50.592 73.0489 48.72C73.0489 44.608 66.5369 46.032 66.5369 43.968C66.5369 43.264 67.1289 42.688 68.6649 42.688C69.6569 42.688 70.7289 42.976 71.7689 43.568L72.5689 41.6C71.5289 40.944 70.0889 40.608 68.6809 40.608C65.4969 40.608 63.9609 42.192 63.9609 44.096C63.9609 48.256 70.4729 46.816 70.4729 48.912C70.4729 49.6 69.8489 50.112 68.3129 50.112C66.9689 50.112 65.5609 49.632 64.6169 48.944L63.7369 50.896C64.7289 51.664 66.5209 52.192 68.2969 52.192ZM79.818 40.8H74.97V52H77.562V48.912H79.818C82.81 48.912 84.682 47.36 84.682 44.864C84.682 42.352 82.81 40.8 79.818 40.8ZM79.674 46.8H77.562V42.912H79.674C81.258 42.912 82.058 43.632 82.058 44.864C82.058 46.08 81.258 46.8 79.674 46.8ZM92.2627 52.192C95.7827 52.192 98.3907 49.744 98.3907 46.4C98.3907 43.056 95.7827 40.608 92.2627 40.608C88.7267 40.608 86.1347 43.072 86.1347 46.4C86.1347 49.728 88.7267 52.192 92.2627 52.192ZM92.2627 49.984C90.2627 49.984 88.7587 48.528 88.7587 46.4C88.7587 44.272 90.2627 42.816 92.2627 42.816C94.2627 42.816 95.7667 44.272 95.7667 46.4C95.7667 48.528 94.2627 49.984 92.2627 49.984ZM104.169 52.192C107.369 52.192 108.921 50.592 108.921 48.72C108.921 44.608 102.409 46.032 102.409 43.968C102.409 43.264 103.001 42.688 104.537 42.688C105.529 42.688 106.601 42.976 107.641 43.568L108.441 41.6C107.401 40.944 105.961 40.608 104.553 40.608C101.369 40.608 99.8328 42.192 99.8328 44.096C99.8328 48.256 106.345 46.816 106.345 48.912C106.345 49.6 105.721 50.112 104.185 50.112C102.841 50.112 101.433 49.632 100.489 48.944L99.6088 50.896C100.601 51.664 102.393 52.192 104.169 52.192ZM110.842 52H113.434V40.8H110.842V52ZM121.602 52.192C123.554 52.192 125.17 51.488 126.226 50.192L124.562 48.656C123.81 49.536 122.866 49.984 121.746 49.984C119.65 49.984 118.162 48.512 118.162 46.4C118.162 44.288 119.65 42.816 121.746 42.816C122.866 42.816 123.81 43.264 124.562 44.128L126.226 42.592C125.17 41.312 123.554 40.608 121.618 40.608C118.13 40.608 115.538 43.024 115.538 46.4C115.538 49.776 118.13 52.192 121.602 52.192ZM128.126 52H130.718V40.8H128.126V52ZM137.494 39.888H139.446L142.342 37.584H139.654L137.494 39.888ZM138.95 52.192C142.47 52.192 145.078 49.744 145.078 46.4C145.078 43.056 142.47 40.608 138.95 40.608C135.414 40.608 132.822 43.072 132.822 46.4C132.822 49.728 135.414 52.192 138.95 52.192ZM138.95 49.984C136.95 49.984 135.446 48.528 135.446 46.4C135.446 44.272 136.95 42.816 138.95 42.816C140.95 42.816 142.454 44.272 142.454 46.4C142.454 48.528 140.95 49.984 138.95 49.984ZM154.888 40.8V47.6L149.32 40.8H147.176V52H149.736V45.2L155.32 52H157.448V40.8H154.888Z" fill="#1A60B9"/>
</svg>
